<?xml version="1.0" standalone="no"?>
<!DOCTYPE svg PUBLIC "-//W3C//DTD SVG 20010904//EN"
 "http://www.w3.org/TR/2001/REC-SVG-20010904/DTD/svg10.dtd">
<svg version="1.0" xmlns="http://www.w3.org/2000/svg"
 width="1436.000000pt" height="191.000000pt" viewBox="0 0 1436.000000 191.000000"
 preserveAspectRatio="xMidYMid meet">

<g transform="translate(0.000000,191.000000) scale(0.100000,-0.100000)"
fill="#F1620E" stroke="none">
<path d="M7465 1874 c-452 -34 -664 -63 -1029 -145 -436 -98 -954 -272 -1421
-477 -88 -39 -252 -112 -365 -162 -1071 -481 -1975 -754 -2790 -842 -174 -19
-635 -15 -795 6 -367 48 -678 144 -972 301 -47 25 -87 45 -89 45 -2 0 -4 -135
-4 -300 l0 -300 7180 0 7180 0 0 489 0 489 -107 -64 c-385 -229 -817 -381
-1205 -423 -221 -24 -566 -9 -798 34 -400 76 -754 204 -1575 570 -397 177
-539 238 -779 332 -612 241 -1157 378 -1726 433 -108 11 -617 21 -705 14z"/>
</g>
</svg>
