<?xml version="1.0" standalone="no"?>
<!DOCTYPE svg PUBLIC "-//W3C//DTD SVG 20010904//EN"
 "http://www.w3.org/TR/2001/REC-SVG-20010904/DTD/svg10.dtd">
<svg version="1.0" xmlns="http://www.w3.org/2000/svg"
 width="1440.000000pt" height="187.000000pt" viewBox="0 0 1440.000000 187.000000"
 preserveAspectRatio="xMidYMid meet">

<g transform="translate(0.000000,187.000000) scale(0.100000,-0.100000)"
fill="#F1620E" stroke="none">
<path d="M0 1255 c0 -338 2 -615 5 -615 2 0 83 65 180 145 96 79 229 185 295
235 659 497 1240 680 2067 648 796 -30 1805 -316 2994 -849 633 -283 918 -395
1309 -512 606 -183 1094 -263 1660 -274 659 -12 1195 73 1870 297 331 110 613
223 1180 475 824 365 1107 471 1485 553 249 55 357 66 620 66 259 0 373 -11
580 -60 61 -14 120 -28 133 -31 l22 -5 0 271 0 271 -7200 0 -7200 0 0 -615z"/>
</g>
</svg>
