<svg width="303" height="343" viewBox="0 0 303 343" fill="none" xmlns="http://www.w3.org/2000/svg">
<path d="M0.686698 62.379C3.72553 140.216 5.74517 182.621 12.3206 246.625C17.8829 271.099 23.7669 281.226 42.8597 288.134C118.897 309.839 172.236 327.216 234.092 342.024C259.277 341.42 268.255 334.859 276.265 320.177C289.952 268.391 292.512 211.689 302.442 139.573C303.773 111.761 298.267 100.465 276.265 88.5958C195.658 54.7466 78.4886 8.48904 78.4886 8.48904C78.4886 8.48904 56.0918 -2.28745 42.8597 0.478369C27.3842 5.33135 20.6517 10.7048 12.3206 21.5974C2.7094 34.4499 0.192083 43.3868 0.686698 62.379Z" fill="white"/>
</svg>
