<svg width="303" height="343" viewBox="0 0 303 343" fill="none" xmlns="http://www.w3.org/2000/svg">
<path d="M302.573 62.379C299.534 140.216 297.514 182.621 290.939 246.625C285.376 271.099 279.492 281.226 260.399 288.134C184.361 309.839 131.021 327.216 69.1644 342.024C43.9797 341.42 35.001 334.859 26.9909 320.177C13.3036 268.391 10.7437 211.689 0.81427 139.573C-0.516693 111.761 4.98865 100.465 26.9909 88.5958C107.599 54.7466 224.77 8.48904 224.77 8.48904C224.77 8.48904 247.167 -2.28745 260.399 0.478369C275.875 5.33135 282.608 10.7048 290.939 21.5974C300.55 34.4499 303.068 43.3868 302.573 62.379Z" fill="white"/>
</svg>
