<svg width="239" height="202" viewBox="0 0 239 202" fill="none" xmlns="http://www.w3.org/2000/svg">
<g clip-path="url(#clip0_33_51)">
<path d="M236.742 76.4594H236.677L199.643 95.8116L148.972 122.29C148.774 122.392 148.562 122.445 148.347 122.446C148.132 122.447 147.919 122.397 147.72 122.297L95.4432 95.7563L57.499 76.4909L57.4411 76.4594H57.3765C56.7778 76.4602 56.2038 76.7516 55.7804 77.2696C55.3571 77.7877 55.119 78.4902 55.1183 79.2228V199.237C55.119 199.969 55.3571 200.672 55.7804 201.19C56.2038 201.708 56.7778 201.999 57.3765 202H236.742C237.34 201.999 237.914 201.708 238.338 201.19C238.761 200.672 238.999 199.969 239 199.237V79.2228C238.999 78.4902 238.761 77.7877 238.338 77.2696C237.914 76.7516 237.34 76.4602 236.742 76.4594V76.4594Z" fill="white"/>
<path d="M237.387 77.2489C237.321 77.2489 237.257 77.2242 237.203 77.1781L147.985 1.14174C147.713 0.911427 147.391 0.788342 147.06 0.789032C146.73 0.789721 146.408 0.91415 146.137 1.1456L57.5618 77.1774C57.5271 77.2071 57.4879 77.2283 57.4466 77.2395C57.4052 77.2508 57.3624 77.252 57.3207 77.243C57.279 77.2341 57.2391 77.2151 57.2033 77.1873C57.1676 77.1595 57.1367 77.1233 57.1123 77.0808C57.088 77.0384 57.0707 76.9905 57.0615 76.9399C57.0523 76.8893 57.0514 76.8369 57.0587 76.7859C57.066 76.7348 57.0815 76.686 57.1042 76.6422C57.127 76.5985 57.1565 76.5606 57.1912 76.5308L145.766 0.499065C146.146 0.175088 146.597 0.000933905 147.059 3.74553e-06C147.522 -0.000926414 147.973 0.17141 148.354 0.493861L237.571 76.5301C237.628 76.5781 237.67 76.6469 237.692 76.7265C237.714 76.8061 237.715 76.8922 237.695 76.9724C237.674 77.0526 237.633 77.1227 237.578 77.1724C237.522 77.2221 237.455 77.2489 237.387 77.2489L237.387 77.2489Z" fill="#3F3D56"/>
<path d="M62.6233 79.9441L147.148 3.28418L232.314 85.3988L151.503 144.024L107.629 131.786L62.6233 79.9441Z" fill="#E6E6E6"/>
<path d="M111.333 180.234H69.5757C69.3193 180.235 69.0653 180.173 68.8284 180.053C68.5914 179.934 68.376 179.758 68.1946 179.536C68.0132 179.314 67.8692 179.051 67.7711 178.761C67.6729 178.471 67.6223 178.161 67.6223 177.847C67.6223 177.533 67.6729 177.222 67.7711 176.933C67.8692 176.643 68.0132 176.379 68.1946 176.158C68.376 175.936 68.5914 175.76 68.8284 175.64C69.0653 175.521 69.3193 175.459 69.5757 175.459H111.333C111.589 175.459 111.843 175.521 112.08 175.64C112.317 175.76 112.533 175.936 112.714 176.158C112.896 176.379 113.04 176.643 113.138 176.933C113.236 177.222 113.286 177.533 113.286 177.847C113.286 178.161 113.236 178.471 113.138 178.761C113.04 179.051 112.896 179.314 112.714 179.536C112.533 179.758 112.317 179.934 112.08 180.053C111.843 180.173 111.589 180.235 111.333 180.234V180.234Z" fill="#F1620E"/>
<path d="M84.5573 169.97H69.5757C69.3193 169.97 69.0653 169.909 68.8284 169.789C68.5914 169.669 68.376 169.493 68.1946 169.272C68.0132 169.05 67.8692 168.787 67.7711 168.497C67.6729 168.207 67.6223 167.896 67.6223 167.582C67.6223 167.269 67.6729 166.958 67.7711 166.668C67.8692 166.378 68.0132 166.115 68.1946 165.893C68.376 165.672 68.5914 165.496 68.8284 165.376C69.0653 165.256 69.3193 165.195 69.5757 165.195H84.5573C84.8137 165.195 85.0677 165.256 85.3047 165.376C85.5416 165.496 85.757 165.672 85.9384 165.893C86.1198 166.115 86.2638 166.378 86.362 166.668C86.4602 166.958 86.5107 167.269 86.5107 167.582C86.5107 167.896 86.4602 168.207 86.362 168.497C86.2638 168.787 86.1198 169.05 85.9384 169.272C85.757 169.493 85.5416 169.669 85.3047 169.789C85.0677 169.909 84.8137 169.97 84.5573 169.97Z" fill="#F1620E"/>
<path d="M148.337 122.643C148.019 122.643 147.705 122.568 147.411 122.421L95.282 95.9512V13.0967C95.2827 12.3641 95.5208 11.6617 95.9442 11.1436C96.3675 10.6255 96.9415 10.3341 97.5402 10.3333H197.546C198.145 10.3341 198.719 10.6255 199.142 11.1436C199.565 11.6617 199.803 12.3641 199.804 13.0967V96.009L199.706 96.0603L149.29 122.408C148.988 122.563 148.664 122.643 148.337 122.643V122.643Z" fill="white"/>
<path d="M148.337 122.84C147.998 122.84 147.663 122.76 147.35 122.604L95.1207 96.0831V13.0967C95.1215 12.3117 95.3766 11.5591 95.8302 11.0041C96.2838 10.449 96.8988 10.1368 97.5402 10.1359H197.546C198.188 10.1368 198.803 10.449 199.256 11.0041C199.71 11.5591 199.965 12.3117 199.966 13.0967V96.1394L149.354 122.589C149.032 122.755 148.686 122.84 148.337 122.84V122.84ZM95.7659 95.5557L147.596 121.874C148.079 122.114 148.621 122.11 149.102 121.863L199.32 95.6181V13.0967C199.32 12.5211 199.133 11.9692 198.8 11.5621C198.467 11.1551 198.016 10.9261 197.546 10.9254H97.5402C97.0698 10.9261 96.6189 11.1551 96.2862 11.5621C95.9536 11.9692 95.7665 12.5211 95.7659 13.0967V95.5557Z" fill="#3F3D56"/>
<path d="M236.742 76.4594H236.677L199.643 95.8116L148.972 122.29C148.774 122.392 148.562 122.445 148.347 122.446C148.132 122.447 147.919 122.397 147.72 122.297L95.4432 95.7563L57.499 76.4909L57.4411 76.4594H57.3765C56.7778 76.4602 56.2038 76.7516 55.7804 77.2696C55.3571 77.7877 55.119 78.4902 55.1183 79.2228V199.237C55.119 199.969 55.3571 200.672 55.7804 201.19C56.2038 201.708 56.7778 201.999 57.3765 202H236.742C237.34 201.999 237.914 201.708 238.338 201.19C238.761 200.672 238.999 199.969 239 199.237V79.2228C238.999 78.4902 238.761 77.7877 238.338 77.2696C237.914 76.7516 237.34 76.4602 236.742 76.4594V76.4594ZM238.355 199.237C238.355 199.76 238.185 200.262 237.882 200.632C237.58 201.002 237.17 201.21 236.742 201.21H57.3765C56.9487 201.21 56.5386 201.002 56.2361 200.632C55.9337 200.262 55.7637 199.76 55.7635 199.237V79.2228C55.7641 78.7124 55.9259 78.222 56.2151 77.8541C56.5042 77.4862 56.8984 77.2694 57.3152 77.2489L95.4432 96.609L147.472 123.028C148.035 123.308 148.666 123.304 149.227 123.016L199.643 96.6682L236.806 77.2489C237.222 77.2709 237.616 77.4883 237.904 77.856C238.192 78.2236 238.354 78.7132 238.355 79.2228V199.237Z" fill="#3F3D56"/>
<path d="M140.221 41.3046H104.735C104.051 41.3046 103.394 40.9718 102.91 40.3795C102.426 39.7872 102.154 38.9839 102.154 38.1463C102.154 37.3087 102.426 36.5054 102.91 35.9131C103.394 35.3208 104.051 34.988 104.735 34.988H140.221C140.906 34.988 141.562 35.3208 142.046 35.9131C142.53 36.5054 142.802 37.3087 142.802 38.1463C142.802 38.9839 142.53 39.7872 142.046 40.3795C141.562 40.9718 140.906 41.3046 140.221 41.3046Z" fill="#F1620E"/>
<path d="M121.833 27.8819H104.735C104.051 27.8819 103.394 27.5492 102.91 26.9569C102.426 26.3646 102.154 25.5613 102.154 24.7237C102.154 23.8861 102.426 23.0828 102.91 22.4905C103.394 21.8982 104.051 21.5654 104.735 21.5654H121.833C122.517 21.5654 123.174 21.8982 123.658 22.4905C124.142 23.0828 124.414 23.8861 124.414 24.7237C124.414 25.5613 124.142 26.3646 123.658 26.9569C123.174 27.5492 122.517 27.8819 121.833 27.8819Z" fill="#F1620E"/>
<path d="M174.084 72.8871H119.887C119.203 72.8871 118.546 72.5543 118.062 71.962C117.578 71.3697 117.306 70.5664 117.306 69.7288C117.306 68.8912 117.578 68.0879 118.062 67.4956C118.546 66.9033 119.203 66.5706 119.887 66.5706H174.084C174.768 66.5706 175.425 66.9033 175.909 67.4956C176.393 68.0879 176.665 68.8912 176.665 69.7288C176.665 70.5664 176.393 71.3697 175.909 71.962C175.425 72.5543 174.768 72.8871 174.084 72.8871Z" fill="#CCCCCC"/>
<path d="M174.084 87.494H119.887C119.203 87.494 118.546 87.1613 118.062 86.569C117.578 85.9767 117.306 85.1734 117.306 84.3357C117.306 83.4981 117.578 82.6948 118.062 82.1025C118.546 81.5102 119.203 81.1775 119.887 81.1775H174.084C174.768 81.1775 175.425 81.5102 175.909 82.1025C176.393 82.6948 176.665 83.4981 176.665 84.3357C176.665 85.1734 176.393 85.9767 175.909 86.569C175.425 87.1613 174.768 87.494 174.084 87.494Z" fill="#CCCCCC"/>
<path d="M13.2097 91.1861C12.8744 91.1854 12.5496 91.0429 12.2903 90.7828C12.031 90.5227 11.8531 90.1609 11.7867 89.7587L10.6129 82.5976C9.99034 78.7993 10.6263 74.8538 12.3809 71.6292C14.1355 68.4047 16.8649 66.1652 19.9688 65.4033C23.0727 64.6415 26.2968 65.4198 28.9317 67.5669C31.5667 69.7141 33.3968 73.0543 34.0193 76.8527L35.1928 84.0137C35.2681 84.4755 35.1906 84.9551 34.9774 85.3471C34.7641 85.7391 34.4325 86.0116 34.0552 86.1048L13.4958 91.1512C13.4016 91.1743 13.3058 91.186 13.2097 91.1861Z" fill="#2F2E41"/>
<path d="M49.7087 197.809L46.0207 197.809L44.2671 180.4L49.71 180.401L49.7087 197.809Z" fill="#A0616A"/>
<path d="M43.3864 196.519H50.499V201.999H38.9081C38.9081 200.546 39.3799 199.152 40.2197 198.124C41.0596 197.096 42.1986 196.519 43.3864 196.519Z" fill="#2F2E41"/>
<path d="M11.281 197.764L7.88501 196.004L11.8169 179.136L16.8288 181.734L11.281 197.764Z" fill="#A0616A"/>
<path d="M5.87029 193.559L12.4197 196.954L10.6731 202L3.8695e-05 196.468C0.229399 195.805 0.563173 195.204 0.98231 194.7C1.40145 194.195 1.89774 193.796 2.44284 193.526C2.98794 193.256 3.57119 193.119 4.15927 193.125C4.74735 193.131 5.32876 193.278 5.87029 193.559V193.559Z" fill="#2F2E41"/>
<path d="M22.6541 89.3916C27.03 89.3916 30.5775 85.0505 30.5775 79.6954C30.5775 74.3403 27.03 69.9991 22.6541 69.9991C18.2781 69.9991 14.7307 74.3403 14.7307 79.6954C14.7307 85.0505 18.2781 89.3916 22.6541 89.3916Z" fill="#A0616A"/>
<path d="M23.0291 123.805L22.9478 123.482C20.7888 114.894 18.5571 106.017 16.3223 97.5742L16.2618 97.3463L16.3992 97.1755C19.8681 92.8572 26.3666 91.1347 31.5158 93.1701C36.698 95.2173 40.2692 100.96 39.8228 106.527C39.5853 109.872 40.3196 113.212 41.8964 115.96L42.1032 116.327L41.78 116.534C35.991 120.179 29.7466 122.62 23.3027 123.756L23.0291 123.805Z" fill="#3F3D56"/>
<path d="M13.4731 194.636C13.1906 194.635 12.9132 194.543 12.6688 194.37L8.38874 191.345C8.03764 191.1 7.77512 190.702 7.65369 190.23C7.53225 189.758 7.56085 189.247 7.73377 188.8L17.2442 161.184L24.5126 120.907L37.7588 115.013L37.8793 115.08C52.0806 123.064 50.9829 180.285 50.6185 191.674C50.6022 192.153 50.444 192.609 50.1734 192.956C49.9028 193.303 49.5384 193.518 49.148 193.56L45.1648 194.197C44.7599 194.24 44.3562 194.097 44.0333 193.795C43.7104 193.493 43.4915 193.053 43.4198 192.564L35.2881 148.09C35.2799 148.005 35.2496 147.926 35.2018 147.865C35.154 147.803 35.0912 147.762 35.0227 147.747C34.9571 147.732 34.8891 147.742 34.8287 147.777C34.7683 147.812 34.7185 147.87 34.6865 147.941L14.8837 193.624C14.7793 193.853 14.6385 194.054 14.4696 194.216C14.3006 194.378 14.1069 194.496 13.8999 194.565C13.7608 194.612 13.6173 194.635 13.4731 194.636V194.636Z" fill="#2F2E41"/>
<path d="M18.2305 154.05C18.4806 153.603 18.6477 153.095 18.7201 152.561C18.7924 152.027 18.7682 151.481 18.6492 150.959C18.5301 150.438 18.3192 149.955 18.0311 149.545C17.743 149.134 17.3849 148.806 16.9819 148.583L17.1986 140.127L13.0319 138.713L12.8631 150.659C12.6019 151.512 12.6055 152.453 12.8733 153.303C13.1412 154.153 13.6545 154.854 14.3161 155.272C14.9777 155.69 15.7416 155.796 16.4631 155.571C17.1845 155.346 17.8134 154.804 18.2305 154.05H18.2305Z" fill="#A0616A"/>
<path d="M12.9247 145.112L12.6801 145.11C12.2771 145.107 11.8898 144.918 11.5955 144.581C11.3012 144.244 11.1214 143.784 11.0919 143.292C10.6923 136.995 9.46505 115.544 10.4534 103.915C10.5844 102.829 10.892 101.787 11.3581 100.85C11.8242 99.913 12.4392 99.0999 13.1668 98.459C13.8944 97.8181 14.7196 97.3624 15.5938 97.119C16.4679 96.8756 17.373 96.8494 18.2556 97.0419L18.51 97.1107L18.5081 97.4297C18.4175 112.731 18.4233 127.942 18.429 142.653C18.4299 143.103 18.3055 143.539 18.0765 143.89C17.8474 144.241 17.5273 144.486 17.1692 144.584C15.7729 144.937 14.3505 145.114 12.9247 145.112Z" fill="#F1620E"/>
<path d="M22.4098 163.463C21.3432 163.457 20.3149 162.976 19.5177 162.108C18.7205 161.241 18.2092 160.048 18.0796 158.752L18.4304 123.439L12.695 105.686C12.4536 103.353 12.8635 100.99 13.8582 98.9785C14.8528 96.9673 16.3738 95.4266 18.1742 94.6066L19.7075 93.9028C19.9972 93.7699 20.3055 93.7082 20.6148 93.7215C20.924 93.7347 21.2281 93.8226 21.5095 93.98C21.7909 94.1373 22.0442 94.3612 22.2548 94.6386C22.4653 94.9161 22.6291 95.2417 22.7366 95.5968L28.6507 115.138L28.6522 115.166C29.0623 122.943 30.9132 161.651 27.2229 162.806C25.6592 163.254 24.0577 163.475 22.4517 163.462L22.4098 163.463Z" fill="#F1620E"/>
<path d="M56.4817 140.717C56.0719 140.514 55.7035 140.203 55.4025 139.806C55.1015 139.41 54.8752 138.937 54.7396 138.422C54.6039 137.907 54.5622 137.362 54.6174 136.825C54.6726 136.288 54.8233 135.772 55.0589 135.314L51.0669 128.408L53.9048 124.416L59.4303 134.266C60.0327 134.801 60.4538 135.588 60.6136 136.478C60.7735 137.368 60.661 138.299 60.2976 139.094C59.9341 139.889 59.3449 140.494 58.6416 140.793C57.9384 141.092 57.1698 141.065 56.4817 140.717H56.4817Z" fill="#A0616A"/>
<path d="M52.4954 131.842C52.2869 131.834 52.083 131.765 51.9007 131.641C51.7185 131.517 51.5633 131.341 51.4482 131.128L51.4272 131.089C44.822 118.855 37.9919 106.204 31.0695 93.5926L30.995 93.4567L31.0903 93.3418C31.6974 92.6483 32.4129 92.1121 33.1937 91.7656C33.9745 91.4191 34.8045 91.2694 35.6338 91.3254C36.4876 91.3445 37.3284 91.5837 38.1015 92.0274C38.8746 92.4712 39.5625 93.1095 40.1202 93.9007C46.1695 102.908 54.8028 121.602 57.3047 127.118C57.4627 127.46 57.5094 127.863 57.4356 128.245C57.3619 128.628 57.173 128.963 56.9067 129.183C55.6782 130.206 54.3623 131.063 52.9822 131.738C52.8273 131.812 52.6617 131.848 52.4954 131.842Z" fill="#F1620E"/>
<path d="M50.278 155.592C46.3215 155.595 32.166 122.24 29.3685 115.553L29.3443 115.473L26.2497 95.0117C26.1934 94.6394 26.1977 94.2571 26.2624 93.8868C26.3271 93.5166 26.451 93.1656 26.6268 92.854C26.8027 92.5425 27.0271 92.2765 27.2871 92.0713C27.5472 91.8662 27.8378 91.7259 28.1423 91.6586L29.754 91.3019C31.6436 90.8781 33.5947 91.2483 35.2906 92.3524C36.9866 93.4566 38.3278 95.2298 39.0964 97.3842L43.1401 118.184L56.6612 146.298C57.1053 147.502 57.1706 148.865 56.8445 150.124C56.5185 151.384 55.8241 152.452 54.8944 153.124C53.5201 154.141 52.0522 154.956 50.5214 155.551C50.4423 155.579 50.3603 155.593 50.2779 155.592H50.278Z" fill="#F1620E"/>
<path d="M28.808 79.7793H12.8394V77.4106C12.8418 74.7939 13.6922 72.2853 15.2042 70.435C16.7161 68.5847 18.7661 67.544 20.9043 67.541H22.1947C24.333 67.544 26.3829 68.5847 27.8949 70.435C29.4069 72.2853 30.2573 74.7939 30.2597 77.4106V78.0027C30.2593 78.4737 30.1062 78.9253 29.8341 79.2584C29.5619 79.5914 29.1929 79.7787 28.808 79.7793V79.7793Z" fill="#2F2E41"/>
</g>
<defs>
<clipPath id="clip0_33_51">
<rect width="239" height="202" fill="white"/>
</clipPath>
</defs>
</svg>
