<svg width="268" height="257" viewBox="0 0 268 257" fill="none" xmlns="http://www.w3.org/2000/svg">
<g clip-path="url(#clip0_33_23)">
<path d="M265.468 97.2775H265.395L223.867 121.899L167.048 155.586C166.826 155.716 166.588 155.784 166.347 155.785C166.106 155.787 165.868 155.723 165.645 155.596L107.024 121.829L64.4759 97.3177L64.4109 97.2775H64.3385C63.6671 97.2785 63.0235 97.6493 62.5488 98.3084C62.074 98.9675 61.807 99.8612 61.8063 100.793V253.484C61.807 254.416 62.074 255.31 62.5488 255.969C63.0235 256.628 63.6671 256.999 64.3385 257H265.468C266.139 256.999 266.783 256.628 267.257 255.969C267.732 255.31 267.999 254.416 268 253.484V100.793C267.999 99.8612 267.732 98.9675 267.257 98.3084C266.783 97.6493 266.139 97.2785 265.468 97.2775V97.2775Z" fill="white"/>
<path d="M266.191 98.282C266.117 98.282 266.045 98.2506 265.985 98.192L165.941 1.45261C165.637 1.15959 165.275 1.00299 164.905 1.00387C164.534 1.00474 164.173 1.16305 163.869 1.45752L64.5463 98.191C64.5074 98.2289 64.4635 98.2558 64.4171 98.2701C64.3707 98.2844 64.3227 98.2859 64.2759 98.2745C64.2292 98.2631 64.1844 98.239 64.1443 98.2036C64.1042 98.1682 64.0696 98.1222 64.0423 98.0682C64.015 98.0142 63.9956 97.9532 63.9853 97.8888C63.975 97.8244 63.9739 97.7579 63.9821 97.6929C63.9903 97.6279 64.0077 97.5658 64.0332 97.5101C64.0587 97.4545 64.0918 97.4063 64.1307 97.3684L163.454 0.634949C163.879 0.22276 164.385 0.00118819 164.903 4.76535e-06C165.422 -0.00117865 165.928 0.218081 166.355 0.628328L266.398 97.3674C266.461 97.4286 266.509 97.5162 266.534 97.6174C266.558 97.7186 266.559 97.8282 266.536 97.9302C266.513 98.0323 266.467 98.1214 266.405 98.1847C266.343 98.2479 266.268 98.282 266.191 98.282L266.191 98.282Z" fill="#3F3D56"/>
<path d="M70.2219 101.711L165.003 4.17834L260.503 108.651L169.886 183.238L120.689 167.668L70.2219 101.711Z" fill="#E6E6E6"/>
<path d="M124.842 229.308H78.0179C77.7304 229.308 77.4456 229.23 77.1799 229.078C76.9142 228.925 76.6727 228.702 76.4692 228.42C76.2658 228.138 76.1044 227.803 75.9943 227.434C75.8842 227.065 75.8275 226.67 75.8275 226.27C75.8275 225.871 75.8842 225.476 75.9943 225.107C76.1044 224.738 76.2658 224.403 76.4692 224.121C76.6727 223.839 76.9142 223.616 77.1799 223.463C77.4456 223.311 77.7304 223.233 78.0179 223.233H124.842C125.13 223.233 125.414 223.311 125.68 223.463C125.946 223.616 126.187 223.839 126.391 224.121C126.594 224.403 126.756 224.738 126.866 225.107C126.976 225.476 127.032 225.871 127.032 226.27C127.032 226.67 126.976 227.065 126.866 227.434C126.756 227.803 126.594 228.138 126.391 228.42C126.187 228.702 125.946 228.925 125.68 229.078C125.414 229.23 125.13 229.308 124.842 229.308V229.308Z" fill="#F1620E"/>
<path d="M94.8174 216.249H78.0179C77.7304 216.249 77.4456 216.171 77.1799 216.019C76.9142 215.866 76.6727 215.643 76.4692 215.361C76.2658 215.078 76.1044 214.743 75.9943 214.375C75.8842 214.006 75.8275 213.611 75.8275 213.211C75.8275 212.812 75.8842 212.417 75.9943 212.048C76.1044 211.679 76.2658 211.344 76.4692 211.062C76.6727 210.78 76.9142 210.556 77.1799 210.404C77.4456 210.252 77.7304 210.173 78.0179 210.174H94.8174C95.1049 210.173 95.3897 210.252 95.6554 210.404C95.9212 210.556 96.1626 210.78 96.3661 211.062C96.5695 211.344 96.7309 211.679 96.841 212.048C96.9511 212.417 97.0078 212.812 97.0078 213.211C97.0078 213.611 96.9511 214.006 96.841 214.375C96.7309 214.743 96.5695 215.078 96.3661 215.361C96.1626 215.643 95.9212 215.866 95.6554 216.019C95.3897 216.171 95.1049 216.249 94.8174 216.249Z" fill="#F1620E"/>
<path d="M166.336 156.036C165.98 156.036 165.627 155.94 165.298 155.753L106.843 122.077V16.6628C106.844 15.7306 107.111 14.837 107.586 14.1778C108.061 13.5187 108.704 13.1479 109.376 13.1469H221.516C222.187 13.1479 222.831 13.5187 223.306 14.1778C223.78 14.837 224.047 15.7306 224.048 16.6628V122.15L223.938 122.215L167.405 155.737C167.066 155.934 166.703 156.036 166.336 156.036V156.036Z" fill="white"/>
<path d="M166.336 156.286C165.956 156.287 165.58 156.185 165.229 155.986L106.663 122.244V16.6627C106.663 15.6639 106.95 14.7064 107.458 14.0002C107.967 13.294 108.656 12.8968 109.376 12.8956H221.516C222.235 12.8968 222.925 13.294 223.434 14.0002C223.942 14.7064 224.228 15.6639 224.229 16.6627V122.316L167.476 155.968C167.115 156.179 166.727 156.287 166.336 156.286V156.286ZM107.386 121.573L165.505 155.057C166.047 155.362 166.654 155.357 167.193 155.043L223.506 121.653V16.6627C223.505 15.9303 223.295 15.2281 222.922 14.7103C222.549 14.1924 222.044 13.901 221.516 13.9002H109.376C108.848 13.901 108.343 14.1924 107.97 14.7103C107.597 15.2281 107.387 15.9303 107.386 16.6627V121.573Z" fill="#3F3D56"/>
<path d="M265.468 97.2775H265.395L223.867 121.899L167.048 155.586C166.826 155.716 166.588 155.784 166.347 155.785C166.106 155.787 165.868 155.723 165.645 155.596L107.024 121.829L64.4759 97.3177L64.4109 97.2775H64.3385C63.6671 97.2785 63.0235 97.6493 62.5488 98.3084C62.074 98.9675 61.807 99.8612 61.8063 100.793V253.484C61.807 254.416 62.074 255.31 62.5488 255.969C63.0235 256.628 63.6671 256.999 64.3385 257H265.468C266.139 256.999 266.783 256.628 267.257 255.969C267.732 255.31 267.999 254.416 268 253.484V100.793C267.999 99.8612 267.732 98.9675 267.257 98.3084C266.783 97.6493 266.139 97.2785 265.468 97.2775V97.2775ZM267.276 253.484C267.276 254.15 267.086 254.789 266.747 255.26C266.407 255.731 265.947 255.995 265.468 255.995H64.3385C63.8588 255.995 63.3989 255.731 63.0597 255.26C62.7206 254.789 62.53 254.15 62.5298 253.484V100.793C62.5304 100.144 62.7118 99.52 63.0361 99.052C63.3604 98.5839 63.8024 98.3081 64.2698 98.282L107.024 122.913L165.366 156.525C165.998 156.882 166.705 156.877 167.334 156.51L223.867 122.989L265.54 98.282C266.007 98.31 266.448 98.5866 266.771 99.0544C267.094 99.5221 267.275 100.145 267.276 100.793V253.484Z" fill="#3F3D56"/>
<path d="M157.235 52.5509H117.444C116.676 52.5509 115.94 52.1275 115.397 51.374C114.855 50.6204 114.55 49.5984 114.55 48.5327C114.55 47.467 114.855 46.445 115.397 45.6914C115.94 44.9379 116.676 44.5145 117.444 44.5145H157.235C158.003 44.5145 158.739 44.9379 159.282 45.6914C159.824 46.445 160.129 47.467 160.129 48.5327C160.129 49.5984 159.824 50.6204 159.282 51.374C158.739 52.1275 158.003 52.5509 157.235 52.5509Z" fill="#F1620E"/>
<path d="M136.616 35.4736H117.444C116.676 35.4736 115.94 35.0503 115.397 34.2967C114.855 33.5432 114.55 32.5211 114.55 31.4554C114.55 30.3897 114.855 29.3677 115.397 28.6142C115.94 27.8606 116.676 27.4373 117.444 27.4373H136.616C137.384 27.4373 138.12 27.8606 138.662 28.6142C139.205 29.3677 139.51 30.3897 139.51 31.4554C139.51 32.5211 139.205 33.5432 138.662 34.2967C138.12 35.0503 137.384 35.4736 136.616 35.4736Z" fill="#F1620E"/>
<path d="M195.207 92.7326H134.434C133.667 92.7326 132.93 92.3093 132.388 91.5557C131.845 90.8022 131.54 89.7801 131.54 88.7145C131.54 87.6488 131.845 86.6267 132.388 85.8732C132.93 85.1196 133.667 84.6963 134.434 84.6963H195.207C195.975 84.6963 196.711 85.1196 197.253 85.8732C197.796 86.6267 198.101 87.6488 198.101 88.7145C198.101 89.7801 197.796 90.8022 197.253 91.5557C196.711 92.3093 195.975 92.7326 195.207 92.7326Z" fill="#CCCCCC"/>
<path d="M195.207 111.317H134.434C133.667 111.317 132.93 110.893 132.388 110.14C131.845 109.386 131.54 108.364 131.54 107.298C131.54 106.233 131.845 105.211 132.388 104.457C132.93 103.704 133.667 103.28 134.434 103.28H195.207C195.975 103.28 196.711 103.704 197.253 104.457C197.796 105.211 198.101 106.233 198.101 107.298C198.101 108.364 197.796 109.386 197.253 110.14C196.711 110.893 195.975 111.317 195.207 111.317Z" fill="#CCCCCC"/>
<path d="M14.8127 116.014C14.4367 116.013 14.0724 115.832 13.7817 115.501C13.4909 115.17 13.2914 114.71 13.217 114.198L11.9007 105.087C11.2026 100.255 11.9158 95.2348 13.8832 91.1323C15.8507 87.0298 18.9114 84.1805 22.3919 83.2112C25.8724 82.242 29.4876 83.2321 32.4423 85.9639C35.397 88.6957 37.4491 92.9454 38.1472 97.778L39.4631 106.889C39.5476 107.476 39.4607 108.086 39.2215 108.585C38.9824 109.084 38.6105 109.431 38.1875 109.549L15.1334 115.97C15.0278 115.999 14.9204 116.014 14.8127 116.014Z" fill="#2F2E41"/>
<path d="M55.7403 251.668L51.6049 251.667L49.6384 229.519L55.7418 229.52L55.7403 251.668Z" fill="#A0616A"/>
<path d="M48.6508 250.027H56.6265V256.999H43.6292C43.6291 255.15 44.1582 253.376 45.1 252.069C46.0417 250.761 47.319 250.027 48.6508 250.027Z" fill="#2F2E41"/>
<path d="M12.6497 251.61L8.84167 249.371L13.2506 227.911L18.8706 231.216L12.6497 251.61Z" fill="#A0616A"/>
<path d="M6.58257 246.261L13.9266 250.58L11.9682 257L2.90232e-05 249.962C0.257219 249.119 0.631493 248.354 1.10149 247.712C1.57148 247.069 2.12799 246.562 2.73924 246.218C3.35048 245.875 4.0045 245.701 4.66394 245.709C5.32338 245.716 5.97533 245.904 6.58257 246.261V246.261Z" fill="#2F2E41"/>
<path d="M25.403 113.731C30.3099 113.731 34.2878 108.208 34.2878 101.395C34.2878 94.5814 30.3099 89.0582 25.403 89.0582C20.496 89.0582 16.5182 94.5814 16.5182 101.395C16.5182 108.208 20.496 113.731 25.403 113.731Z" fill="#A0616A"/>
<path d="M25.8234 157.514L25.7322 157.103C23.3112 146.177 20.8088 134.883 18.3028 124.141L18.235 123.852L18.389 123.634C22.2788 118.14 29.5659 115.949 35.3398 118.538C41.1508 121.143 45.1553 128.448 44.6548 135.532C44.3885 139.788 45.2119 144.037 46.9801 147.533L47.2119 148L46.8495 148.263C40.3581 152.901 33.3559 156.007 26.1301 157.452L25.8234 157.514Z" fill="#3F3D56"/>
<path d="M15.1079 247.63C14.7911 247.63 14.48 247.513 14.206 247.292L9.4066 243.444C9.0129 243.132 8.71853 242.625 8.58236 242.025C8.44619 241.425 8.47826 240.775 8.67216 240.206L19.3366 205.071L27.487 153.827L42.3404 146.328L42.4755 146.414C58.4 156.571 57.1691 229.372 56.7605 243.863C56.7422 244.472 56.5647 245.052 56.2613 245.493C55.958 245.935 55.5493 246.208 55.1116 246.262L50.6451 247.072C50.191 247.128 49.7383 246.945 49.3762 246.561C49.0141 246.176 48.7687 245.617 48.6883 244.994L39.5699 188.411C39.5607 188.304 39.5268 188.203 39.4732 188.125C39.4195 188.046 39.3491 187.994 39.2723 187.975C39.1987 187.956 39.1225 187.969 39.0548 188.013C38.987 188.058 38.9311 188.131 38.8953 188.222L16.6896 246.343C16.5726 246.635 16.4147 246.891 16.2253 247.097C16.0358 247.302 15.8186 247.453 15.5864 247.541C15.4305 247.6 15.2696 247.63 15.1079 247.63V247.63Z" fill="#2F2E41"/>
<path d="M20.4425 195.994C20.723 195.426 20.9103 194.78 20.9914 194.1C21.0726 193.421 21.0454 192.725 20.9119 192.062C20.7784 191.399 20.5419 190.785 20.2189 190.262C19.8959 189.74 19.4943 189.322 19.0424 189.038L19.2853 178.281L14.6131 176.482L14.4237 191.68C14.1309 192.765 14.135 193.962 14.4353 195.044C14.7356 196.126 15.3112 197.017 16.0531 197.549C16.795 198.08 17.6516 198.216 18.4606 197.929C19.2696 197.643 19.9747 196.954 20.4425 195.994H20.4425Z" fill="#A0616A"/>
<path d="M14.4929 184.623L14.2187 184.621C13.7667 184.617 13.3325 184.376 13.0025 183.947C12.6724 183.519 12.4708 182.933 12.4378 182.307C11.9897 174.295 10.6135 147.004 11.7218 132.208C11.8687 130.827 12.2136 129.502 12.7362 128.309C13.2589 127.117 13.9486 126.083 14.7644 125.267C15.5803 124.452 16.5057 123.872 17.4859 123.562C18.4661 123.253 19.4811 123.219 20.4707 123.464L20.756 123.552L20.7538 123.958C20.6523 143.425 20.6588 162.778 20.6652 181.495C20.6662 182.066 20.5267 182.621 20.2698 183.068C20.013 183.514 19.6541 183.826 19.2525 183.951C17.6867 184.401 16.0918 184.626 14.4929 184.623Z" fill="#F1620E"/>
<path d="M25.129 207.97C23.933 207.963 22.7799 207.35 21.886 206.247C20.9921 205.144 20.4187 203.625 20.2734 201.977L20.6668 157.048L14.2354 134.461C13.9647 131.494 14.4244 128.487 15.5397 125.928C16.6551 123.369 18.3606 121.409 20.3794 120.366L22.0988 119.47C22.4237 119.301 22.7694 119.223 23.1162 119.24C23.4629 119.257 23.8039 119.368 24.1195 119.569C24.4351 119.769 24.7191 120.054 24.9552 120.407C25.1913 120.76 25.3749 121.174 25.4954 121.626L32.1272 146.487L32.1289 146.523C32.5887 156.418 34.6642 205.665 30.5261 207.134C28.7727 207.705 26.9768 207.985 25.176 207.97L25.129 207.97Z" fill="#F1620E"/>
<path d="M63.3351 179.031C62.8756 178.773 62.4625 178.377 62.125 177.873C61.7875 177.368 61.5338 176.767 61.3816 176.112C61.2295 175.456 61.1828 174.763 61.2446 174.079C61.3065 173.396 61.4755 172.74 61.7397 172.158L57.2633 163.371L60.4455 158.292L66.6415 170.823C67.317 171.504 67.7892 172.506 67.9684 173.638C68.1477 174.771 68.0216 175.955 67.614 176.966C67.2065 177.978 66.5458 178.747 65.7572 179.128C64.9685 179.508 64.1068 179.474 63.3351 179.031H63.3351Z" fill="#A0616A"/>
<path d="M58.8652 167.739C58.6314 167.73 58.4027 167.642 58.1984 167.484C57.994 167.326 57.82 167.102 57.6909 166.831L57.6674 166.782C50.2607 151.216 42.6019 135.121 34.8396 119.076L34.756 118.903L34.8628 118.757C35.5436 117.874 36.346 117.192 37.2215 116.751C38.0971 116.311 39.0278 116.12 39.9577 116.191C40.915 116.216 41.8579 116.52 42.7248 117.084C43.5917 117.649 44.363 118.461 44.9885 119.468C51.7717 130.927 61.4526 154.712 64.2581 161.729C64.4352 162.165 64.4876 162.677 64.4049 163.164C64.3222 163.651 64.1104 164.077 63.8118 164.356C62.4342 165.659 60.9586 166.749 59.4111 167.607C59.2374 167.702 59.0517 167.747 58.8652 167.739Z" fill="#F1620E"/>
<path d="M56.3786 197.957C51.9421 197.96 36.0689 155.523 32.932 147.016L32.9049 146.913L29.4348 120.881C29.3716 120.408 29.3765 119.921 29.449 119.45C29.5216 118.979 29.6605 118.533 29.8576 118.136C30.0548 117.74 30.3065 117.401 30.5981 117.14C30.8897 116.879 31.2156 116.701 31.557 116.615L33.3643 116.161C35.4831 115.622 37.671 116.093 39.5727 117.498C41.4744 118.903 42.9784 121.159 43.8403 123.9L48.3746 150.363L63.5364 186.131C64.0343 187.663 64.1075 189.397 63.7419 191C63.3764 192.602 62.5977 193.961 61.5552 194.816C60.0141 196.111 58.3681 197.147 56.6515 197.904C56.5628 197.939 56.4709 197.957 56.3786 197.957H56.3786Z" fill="#F1620E"/>
<path d="M32.3035 101.501H14.3972V98.4877C14.3999 95.1586 15.3536 91.9669 17.049 89.6128C18.7444 87.2588 21.0431 85.9347 23.4408 85.9309H24.8878C27.2854 85.9347 29.5842 87.2588 31.2796 89.6128C32.975 91.9669 33.9287 95.1586 33.9314 98.4877V99.2411C33.9309 99.8404 33.7592 100.415 33.454 100.839C33.1489 101.262 32.7351 101.501 32.3035 101.501V101.501Z" fill="#2F2E41"/>
</g>
<defs>
<clipPath id="clip0_33_23">
<rect width="268" height="257" fill="white"/>
</clipPath>
</defs>
</svg>
