<svg width="49" height="52" viewBox="0 0 49 52" fill="none" xmlns="http://www.w3.org/2000/svg">
<rect width="49" height="52" fill="#E5E5E5"/>
<rect width="1440" height="900" transform="translate(-695.74 -112)" fill="#F0F1F3"/>
<g filter="url(#filter0_dd_0_1)">
<rect x="-176.74" y="-48" width="402" height="748" rx="6" fill="white"/>
<path d="M38.2734 42.0683L32.9196 26L46.9388 16.0683C50.3884 26.3768 46.9388 35.9317 38.2734 42.0683ZM46.9388 16.0683L41.585 0H24.2541L29.5803 16.0683H46.9388ZM24.2541 0H6.92325L1.59704 16.0683H18.9279L24.2541 0ZM1.56944 16.0683C-1.85258 26.3768 1.56944 35.9317 10.2349 42.0683L15.5611 26L1.56944 16.0683ZM10.2349 42.0683L24.2541 52L38.2734 42.0683L24.2541 32.1366L10.2349 42.0683Z" fill="black"/>
</g>
<defs>
<filter id="filter0_dd_0_1" x="-196.74" y="-48" width="442" height="788" filterUnits="userSpaceOnUse" color-interpolation-filters="sRGB">
<feFlood flood-opacity="0" result="BackgroundImageFix"/>
<feColorMatrix in="SourceAlpha" type="matrix" values="0 0 0 0 0 0 0 0 0 0 0 0 0 0 0 0 0 0 127 0" result="hardAlpha"/>
<feMorphology radius="5" operator="erode" in="SourceAlpha" result="effect1_dropShadow_0_1"/>
<feOffset dy="10"/>
<feGaussianBlur stdDeviation="5"/>
<feColorMatrix type="matrix" values="0 0 0 0 0 0 0 0 0 0 0 0 0 0 0 0 0 0 0.04 0"/>
<feBlend mode="normal" in2="BackgroundImageFix" result="effect1_dropShadow_0_1"/>
<feColorMatrix in="SourceAlpha" type="matrix" values="0 0 0 0 0 0 0 0 0 0 0 0 0 0 0 0 0 0 127 0" result="hardAlpha"/>
<feMorphology radius="5" operator="erode" in="SourceAlpha" result="effect2_dropShadow_0_1"/>
<feOffset dy="20"/>
<feGaussianBlur stdDeviation="12.5"/>
<feColorMatrix type="matrix" values="0 0 0 0 0 0 0 0 0 0 0 0 0 0 0 0 0 0 0.1 0"/>
<feBlend mode="normal" in2="effect1_dropShadow_0_1" result="effect2_dropShadow_0_1"/>
<feBlend mode="normal" in="SourceGraphic" in2="effect2_dropShadow_0_1" result="shape"/>
</filter>
</defs>
</svg>
