<svg width="1235" height="108" viewBox="0 0 1235 108" fill="none" xmlns="http://www.w3.org/2000/svg">
<path d="M50.4854 15.9551L54.267 17.2586L54.4238 16.8037L54.4682 16.3246L50.4854 15.9551ZM19.4746 105.922V109.922H22.3268L23.2563 107.225L19.4746 105.922ZM0.725586 105.922L-3.01804 104.513L-5.05384 109.922H0.725586V105.922ZM39.792 2.125V-1.875H37.0236L36.0484 0.716L39.792 2.125ZM51.7686 2.125L55.7514 2.49454L56.1569 -1.875H51.7686V2.125ZM76.4346 105.922L72.6538 107.228L73.5845 109.922H76.4346V105.922ZM45.3525 15.9551L41.3716 16.345L41.4176 16.8149L41.5718 17.2613L45.3525 15.9551ZM43.998 2.125V-1.875H39.5872L40.0171 2.51489L43.998 2.125ZM56.0459 2.125L59.7878 0.711498L58.8108 -1.875H56.0459V2.125ZM95.2549 105.922V109.922H101.042L98.9968 104.508L95.2549 105.922ZM74.9375 67.4258H78.9375V63.4258H74.9375V67.4258ZM74.9375 81.6123V85.6123H78.9375V81.6123H74.9375ZM18.4766 81.6123H14.4766V85.6123H18.4766V81.6123ZM18.4766 67.4258V63.4258H14.4766V67.4258H18.4766ZM46.7037 14.6516L15.693 104.618L23.2563 107.225L54.267 17.2586L46.7037 14.6516ZM19.4746 101.922H0.725586V109.922H19.4746V101.922ZM4.46921 107.331L43.5356 3.534L36.0484 0.716L-3.01804 104.513L4.46921 107.331ZM39.792 6.125H51.7686V-1.875H39.792V6.125ZM47.7857 1.75546L46.5025 15.5855L54.4682 16.3246L55.7514 2.49454L47.7857 1.75546ZM80.2153 104.616L49.1333 14.6489L41.5718 17.2613L72.6538 107.228L80.2153 104.616ZM49.3335 15.5652L47.979 1.73511L40.0171 2.51489L41.3716 16.345L49.3335 15.5652ZM43.998 6.125H56.0459V-1.875H43.998V6.125ZM52.304 3.5385L91.513 107.335L98.9968 104.508L59.7878 0.711498L52.304 3.5385ZM95.2549 101.922H76.4346V109.922H95.2549V101.922ZM70.9375 67.4258V81.6123H78.9375V67.4258H70.9375ZM74.9375 77.6123H18.4766V85.6123H74.9375V77.6123ZM22.4766 81.6123V67.4258H14.4766V81.6123H22.4766ZM18.4766 71.4258H74.9375V63.4258H18.4766V71.4258ZM160.484 73.4854L156.735 74.8781L156.752 74.9247L156.77 74.9709L160.484 73.4854ZM157.134 68.9229L154.538 71.9662L157.134 68.9229ZM150.29 64.9307L148.621 68.566L148.657 68.5823L148.693 68.598L150.29 64.9307ZM139.169 60.8672L137.993 64.6903L138.001 64.6929L139.169 60.8672ZM125.481 55.8057L123.811 59.4399L123.836 59.4515L123.861 59.4626L125.481 55.8057ZM114.646 49.2471L112.118 52.3471L112.132 52.3589L112.147 52.3705L114.646 49.2471ZM107.445 40.6211L103.899 42.4714L103.905 42.482L103.91 42.4926L107.445 40.6211ZM107.517 17.7373L103.969 15.8904L103.959 15.9096L103.949 15.9289L107.517 17.7373ZM115.145 8.75488L117.581 11.9271L117.588 11.922L115.145 8.75488ZM126.907 2.83789L128.075 6.66361L128.093 6.658L128.112 6.65222L126.907 2.83789ZM161.768 4.97656L159.942 8.53585L159.955 8.5421L161.768 4.97656ZM174.671 16.4541L171.277 18.5711L171.285 18.5831L171.292 18.5951L174.671 16.4541ZM179.233 32.3516V36.3516H183.233V32.3516H179.233ZM161.482 32.3516H157.482V36.3516H161.482V32.3516ZM159.272 23.2979L155.747 25.1867L155.767 25.2245L155.788 25.2619L159.272 23.2979ZM152.714 17.0244L150.856 20.5666L150.867 20.5728L150.879 20.5789L152.714 17.0244ZM131.113 16.668L129.449 13.0307L131.113 16.668ZM124.127 34.6328L120.635 36.5841L120.648 36.6065L120.66 36.6287L124.127 34.6328ZM128.262 39.0527L125.875 42.2626L125.902 42.2825L125.929 42.302L128.262 39.0527ZM135.248 42.8311L136.809 39.148L135.248 42.8311ZM145.157 46.2529L146.298 42.419L146.28 42.4138L146.262 42.4087L145.157 46.2529ZM160.199 51.9561L158.442 55.5496L158.459 55.5575L158.475 55.5653L160.199 51.9561ZM177.309 67.8535L173.632 69.4292L173.636 69.4388L173.64 69.4484L177.309 67.8535ZM176.81 90.8799L180.377 92.6883L180.382 92.6785L180.387 92.6687L176.81 90.8799ZM169.253 99.791L171.653 102.991L171.66 102.985L169.253 99.791ZM157.562 105.423L158.655 109.27L158.668 109.267L158.682 109.263L157.562 105.423ZM127.691 105.352L126.623 109.206L126.633 109.209L127.691 105.352ZM114.574 99.292L112.283 102.571L112.296 102.58L112.31 102.589L114.574 99.292ZM105.164 89.0264L101.679 90.9893L101.684 90.998L101.689 91.0066L105.164 89.0264ZM101.671 74.5547V70.5547H97.6709V74.5547H101.671ZM119.564 74.5547H123.564V70.5547H119.564V74.5547ZM121.275 83.1807L117.669 84.9116L117.683 84.9407L117.698 84.9695L121.275 83.1807ZM126.194 89.0264L123.842 92.2613L123.866 92.279L123.891 92.2963L126.194 89.0264ZM133.466 92.3057L132.464 96.1783L132.472 96.1803L132.48 96.1823L133.466 92.3057ZM152.928 91.5928L151.389 87.9005L151.378 87.9051L151.367 87.9098L152.928 91.5928ZM165.482 79.1885C165.482 76.6374 165.085 74.2177 164.198 71.9998L156.77 74.9709C157.214 76.0799 157.482 77.4622 157.482 79.1885H165.482ZM164.234 72.0926C163.336 69.6746 161.762 67.6135 159.73 65.8795L154.538 71.9662C155.737 72.9888 156.397 73.9693 156.735 74.8781L164.234 72.0926ZM159.73 65.8795C157.701 64.1497 155.03 62.632 151.887 61.2633L148.693 68.598C151.443 69.7957 153.334 70.9395 154.538 71.9662L159.73 65.8795ZM151.959 61.2953C148.84 59.8639 144.95 58.4497 140.337 57.0415L138.001 64.6929C142.418 66.0412 145.942 67.336 148.621 68.566L151.959 61.2953ZM140.345 57.0441C135.535 55.5639 131.123 53.9305 127.102 52.1487L123.861 59.4626C128.205 61.3879 132.918 63.1288 137.993 64.6903L140.345 57.0441ZM127.152 52.1714C123.27 50.3864 119.945 48.3639 117.144 46.1236L112.147 52.3705C115.525 55.073 119.423 57.4228 123.811 59.4399L127.152 52.1714ZM117.173 46.147C114.461 43.9355 112.419 41.4675 110.98 38.7495L103.91 42.4926C105.893 46.2382 108.652 49.5209 112.118 52.3471L117.173 46.147ZM110.992 38.7708C109.622 36.1462 108.879 33.0204 108.879 29.2861H100.879C100.879 34.1066 101.846 38.5374 103.899 42.4714L110.992 38.7708ZM108.879 29.2861C108.879 25.6286 109.634 22.4067 111.084 19.5457L103.949 15.9289C101.882 20.0068 100.879 24.484 100.879 29.2861H108.879ZM111.065 19.5842C112.586 16.6618 114.738 14.1113 117.581 11.9271L112.708 5.58268C108.993 8.4362 106.059 11.874 103.969 15.8904L111.065 19.5842ZM117.588 11.922C120.488 9.68434 123.965 7.91831 128.075 6.66361L125.739 -0.987827C120.82 0.513985 116.454 2.69261 112.701 5.58775L117.588 11.922ZM128.112 6.65222C132.182 5.36679 136.759 4.69922 141.878 4.69922V-3.30078C136.066 -3.30078 130.662 -2.54258 125.703 -0.97644L128.112 6.65222ZM141.878 4.69922C149.087 4.69922 155.063 6.03349 159.942 8.53583L163.593 1.41729C157.351 -1.78349 150.067 -3.30078 141.878 -3.30078V4.69922ZM159.955 8.5421C164.988 11.1017 168.71 14.4562 171.277 18.5711L178.065 14.3371C174.643 8.85178 169.763 4.55455 163.581 1.41102L159.955 8.5421ZM171.292 18.5951C173.919 22.7412 175.233 27.2952 175.233 32.3516H183.233C183.233 25.8116 181.506 19.7672 178.05 14.3131L171.292 18.5951ZM179.233 28.3516H161.482V36.3516H179.233V28.3516ZM165.482 32.3516C165.482 28.3396 164.613 24.6272 162.757 21.3338L155.788 25.2619C156.878 27.1964 157.482 29.5198 157.482 32.3516H165.482ZM162.798 21.409C160.953 17.964 158.141 15.3239 154.548 13.4699L150.879 20.5789C153.18 21.7666 154.74 23.3088 155.747 25.1867L162.798 21.409ZM154.572 13.4822C150.929 11.5713 146.554 10.7432 141.664 10.7432V18.7432C145.709 18.7432 148.7 19.4359 150.856 20.5666L154.572 13.4822ZM141.664 10.7432C137.061 10.7432 132.931 11.437 129.449 13.0307L132.778 20.3052C134.903 19.3325 137.808 18.7432 141.664 18.7432V10.7432ZM129.449 13.0307C126.076 14.5741 123.324 16.7768 121.456 19.7389L128.224 24.0053C129.113 22.5949 130.542 21.3283 132.778 20.3052L129.449 13.0307ZM121.456 19.7389C119.648 22.6067 118.772 25.8272 118.772 29.2861H126.772C126.772 27.2321 127.275 25.5098 128.224 24.0053L121.456 19.7389ZM118.772 29.2861C118.772 31.8806 119.381 34.3401 120.635 36.5841L127.619 32.6815C127.067 31.6937 126.772 30.5888 126.772 29.2861H118.772ZM120.66 36.6287C121.901 38.7829 123.699 40.6445 125.875 42.2626L130.649 35.8429C129.117 34.7044 128.159 33.6195 127.593 32.637L120.66 36.6287ZM125.929 42.302C128.088 43.8519 130.695 45.2462 133.687 46.5141L136.809 39.148C134.193 38.0396 132.143 36.9151 130.595 35.8034L125.929 42.302ZM133.687 46.5141C136.676 47.7804 140.138 48.9719 144.052 50.0972L146.262 42.4087C142.572 41.3477 139.428 40.258 136.809 39.148L133.687 46.5141ZM144.017 50.0868C149.607 51.7502 154.407 53.5766 158.442 55.5496L161.956 48.3625C157.437 46.1532 152.208 44.1775 146.298 42.419L144.017 50.0868ZM158.475 55.5653C162.472 57.4752 165.687 59.5967 168.19 61.891L173.595 55.9938C170.395 53.0602 166.481 50.5241 161.924 48.3468L158.475 55.5653ZM168.19 61.891C170.652 64.1483 172.445 66.6592 173.632 69.4292L180.985 66.2778C179.321 62.3942 176.836 58.9643 173.595 55.9938L168.19 61.891ZM173.64 69.4484C174.813 72.1464 175.447 75.3204 175.447 79.0459H183.447C183.447 74.4069 182.655 70.1192 180.977 66.2586L173.64 69.4484ZM175.447 79.0459C175.447 82.8677 174.683 86.1892 173.232 89.091L180.387 92.6687C182.453 88.5367 183.447 83.9689 183.447 79.0459H175.447ZM173.242 89.0715C171.775 91.9661 169.665 94.4716 166.846 96.5966L171.66 102.985C175.399 100.168 178.328 96.7325 180.377 92.6883L173.242 89.0715ZM166.853 96.591C164.067 98.6803 160.622 100.363 156.442 101.583L158.682 109.263C163.626 107.821 167.975 105.749 171.653 102.991L166.853 96.591ZM156.468 101.575C152.367 102.741 147.705 103.348 142.448 103.348V111.348C148.312 111.348 153.726 110.671 158.655 109.27L156.468 101.575ZM142.448 103.348C137.818 103.348 133.256 102.731 128.75 101.494L126.633 109.209C131.823 110.634 137.098 111.348 142.448 111.348V103.348ZM128.76 101.497C124.369 100.28 120.404 98.4428 116.839 95.9947L112.31 102.589C116.634 105.559 121.414 107.762 126.623 109.206L128.76 101.497ZM116.865 96.0132C113.395 93.5883 110.668 90.606 108.64 87.0462L101.689 91.0066C104.318 95.6212 107.864 99.4826 112.283 102.571L116.865 96.0132ZM108.649 87.0634C106.709 83.6186 105.671 79.4922 105.671 74.5547H97.6709C97.6709 80.6432 98.9615 86.1646 101.679 90.9893L108.649 87.0634ZM101.671 78.5547H119.564V70.5547H101.671V78.5547ZM115.564 74.5547C115.564 78.366 116.207 81.8657 117.669 84.9116L124.881 81.4497C124.062 79.743 123.564 77.4921 123.564 74.5547H115.564ZM117.698 84.9695C119.164 87.9027 121.218 90.3529 123.842 92.2613L128.547 85.7914C126.989 84.6581 125.763 83.2113 124.853 81.3918L117.698 84.9695ZM123.891 92.2963C126.418 94.077 129.293 95.3582 132.464 96.1783L134.467 88.4331C132.125 87.8273 130.153 86.9224 128.498 85.7564L123.891 92.2963ZM132.48 96.1823C135.637 96.9849 138.965 97.375 142.448 97.375V89.375C139.563 89.375 136.903 89.0522 134.451 88.429L132.48 96.1823ZM142.448 97.375C146.979 97.375 151.043 96.7356 154.488 95.2758L151.367 87.9098C149.204 88.8262 146.282 89.375 142.448 89.375V97.375ZM154.466 95.2851C157.897 93.8554 160.726 91.7398 162.672 88.8213L156.016 84.3837C155.11 85.7426 153.661 86.9539 151.389 87.9005L154.466 95.2851ZM162.672 88.8213C164.576 85.9659 165.482 82.7073 165.482 79.1885H157.482C157.482 81.2778 156.963 82.9618 156.016 84.3837L162.672 88.8213ZM248.883 73.4854L245.133 74.8781L245.15 74.9247L245.169 74.9709L248.883 73.4854ZM245.532 68.9229L242.936 71.9662L245.532 68.9229ZM238.688 64.9307L237.02 68.566L237.055 68.5823L237.091 68.598L238.688 64.9307ZM227.567 60.8672L226.391 64.6903L226.4 64.6929L227.567 60.8672ZM213.88 55.8057L212.209 59.4399L212.234 59.4515L212.259 59.4626L213.88 55.8057ZM203.044 49.2471L200.516 52.3471L200.531 52.3589L200.545 52.3705L203.044 49.2471ZM195.844 40.6211L192.297 42.4714L192.303 42.482L192.309 42.4926L195.844 40.6211ZM195.915 17.7373L192.367 15.8904L192.357 15.9096L192.347 15.9289L195.915 17.7373ZM203.543 8.75488L205.98 11.9271L205.986 11.922L203.543 8.75488ZM215.306 2.83789L216.474 6.66361L216.492 6.658L216.51 6.65222L215.306 2.83789ZM250.166 4.97656L248.341 8.53585L248.353 8.5421L250.166 4.97656ZM263.069 16.4541L259.675 18.5711L259.683 18.5831L259.691 18.5951L263.069 16.4541ZM267.632 32.3516V36.3516H271.632V32.3516H267.632ZM249.881 32.3516H245.881V36.3516H249.881V32.3516ZM247.671 23.2979L244.145 25.1867L244.165 25.2245L244.186 25.2619L247.671 23.2979ZM241.112 17.0244L239.254 20.5666L239.266 20.5728L239.278 20.5789L241.112 17.0244ZM219.512 16.668L217.847 13.0307L219.512 16.668ZM212.525 34.6328L209.034 36.5841L209.046 36.6065L209.059 36.6287L212.525 34.6328ZM216.66 39.0527L214.273 42.2626L214.3 42.2825L214.327 42.302L216.66 39.0527ZM223.646 42.8311L225.207 39.148L223.646 42.8311ZM233.556 46.2529L234.696 42.419L234.679 42.4138L234.661 42.4087L233.556 46.2529ZM248.598 51.9561L246.841 55.5496L246.857 55.5575L246.873 55.5653L248.598 51.9561ZM265.707 67.8535L262.03 69.4292L262.035 69.4388L262.039 69.4484L265.707 67.8535ZM265.208 90.8799L268.776 92.6883L268.781 92.6785L268.786 92.6687L265.208 90.8799ZM257.651 99.791L260.051 102.991L260.059 102.985L257.651 99.791ZM245.96 105.423L247.053 109.27L247.067 109.267L247.08 109.263L245.96 105.423ZM216.09 105.352L215.021 109.206L215.031 109.209L216.09 105.352ZM202.973 99.292L200.681 102.571L200.695 102.58L200.708 102.589L202.973 99.292ZM193.562 89.0264L190.077 90.9893L190.082 90.998L190.087 91.0066L193.562 89.0264ZM190.069 74.5547V70.5547H186.069V74.5547H190.069ZM207.963 74.5547H211.963V70.5547H207.963V74.5547ZM209.674 83.1807L206.068 84.9116L206.082 84.9407L206.096 84.9695L209.674 83.1807ZM214.593 89.0264L212.24 92.2613L212.264 92.279L212.289 92.2963L214.593 89.0264ZM221.864 92.3057L220.863 96.1783L220.871 96.1803L220.879 96.1823L221.864 92.3057ZM241.326 91.5928L239.788 87.9005L239.777 87.9051L239.766 87.9098L241.326 91.5928ZM253.881 79.1885C253.881 76.6374 253.484 74.2177 252.597 71.9998L245.169 74.9709C245.612 76.0799 245.881 77.4622 245.881 79.1885H253.881ZM252.633 72.0926C251.734 69.6746 250.161 67.6135 248.128 65.8795L242.936 71.9662C244.135 72.9888 244.796 73.9693 245.133 74.8781L252.633 72.0926ZM248.128 65.8795C246.1 64.1497 243.429 62.632 240.286 61.2633L237.091 68.598C239.842 69.7957 241.733 70.9395 242.936 71.9662L248.128 65.8795ZM240.357 61.2953C237.239 59.8639 233.348 58.4497 228.735 57.0415L226.4 64.6929C230.816 66.0412 234.34 67.336 237.02 68.566L240.357 61.2953ZM228.744 57.0441C223.933 55.5639 219.521 53.9305 215.501 52.1487L212.259 59.4626C216.603 61.3879 221.316 63.1288 226.391 64.6903L228.744 57.0441ZM215.551 52.1714C211.668 50.3864 208.343 48.3639 205.543 46.1236L200.545 52.3705C203.923 55.073 207.822 57.4228 212.209 59.4399L215.551 52.1714ZM205.572 46.147C202.859 43.9355 200.818 41.4675 199.379 38.7495L192.309 42.4926C194.292 46.2382 197.05 49.5209 200.516 52.3471L205.572 46.147ZM199.39 38.7708C198.021 36.1462 197.277 33.0204 197.277 29.2861H189.277C189.277 34.1066 190.245 38.5374 192.297 42.4714L199.39 38.7708ZM197.277 29.2861C197.277 25.6286 198.033 22.4067 199.483 19.5457L192.347 15.9289C190.28 20.0068 189.277 24.484 189.277 29.2861H197.277ZM199.463 19.5842C200.984 16.6618 203.136 14.1113 205.98 11.9271L201.106 5.58268C197.391 8.4362 194.458 11.874 192.367 15.8904L199.463 19.5842ZM205.986 11.922C208.887 9.68434 212.363 7.91831 216.474 6.66361L214.138 -0.987827C209.218 0.513985 204.853 2.69261 201.1 5.58775L205.986 11.922ZM216.51 6.65222C220.581 5.36679 225.158 4.69922 230.276 4.69922V-3.30078C224.464 -3.30078 219.061 -2.54258 214.101 -0.97644L216.51 6.65222ZM230.276 4.69922C237.486 4.69922 243.461 6.03349 248.341 8.53583L251.991 1.41729C245.75 -1.78349 238.466 -3.30078 230.276 -3.30078V4.69922ZM248.353 8.5421C253.387 11.1017 257.109 14.4562 259.675 18.5711L266.463 14.3371C263.042 8.85178 258.161 4.55455 251.979 1.41102L248.353 8.5421ZM259.691 18.5951C262.318 22.7412 263.632 27.2952 263.632 32.3516H271.632C271.632 25.8116 269.904 19.7672 266.448 14.3131L259.691 18.5951ZM267.632 28.3516H249.881V36.3516H267.632V28.3516ZM253.881 32.3516C253.881 28.3396 253.012 24.6272 251.156 21.3338L244.186 25.2619C245.277 27.1964 245.881 29.5198 245.881 32.3516H253.881ZM251.197 21.409C249.351 17.964 246.539 15.3239 242.947 13.4699L239.278 20.5789C241.579 21.7666 243.139 23.3088 244.145 25.1867L251.197 21.409ZM242.971 13.4822C239.328 11.5713 234.953 10.7432 230.062 10.7432V18.7432C234.107 18.7432 237.099 19.4359 239.254 20.5666L242.971 13.4822ZM230.062 10.7432C225.459 10.7432 221.33 11.437 217.847 13.0307L221.176 20.3052C223.302 19.3325 226.206 18.7432 230.062 18.7432V10.7432ZM217.847 13.0307C214.475 14.5741 211.722 16.7768 209.855 19.7389L216.622 24.0053C217.511 22.5949 218.941 21.3283 221.176 20.3052L217.847 13.0307ZM209.855 19.7389C208.047 22.6067 207.171 25.8272 207.171 29.2861H215.171C215.171 27.2321 215.673 25.5098 216.622 24.0053L209.855 19.7389ZM207.171 29.2861C207.171 31.8806 207.78 34.3401 209.034 36.5841L216.017 32.6815C215.465 31.6937 215.171 30.5888 215.171 29.2861H207.171ZM209.059 36.6287C210.299 38.7829 212.097 40.6445 214.273 42.2626L219.047 35.8429C217.516 34.7044 216.558 33.6195 215.992 32.637L209.059 36.6287ZM214.327 42.302C216.486 43.8519 219.094 45.2462 222.086 46.5141L225.207 39.148C222.591 38.0396 220.541 36.9151 218.993 35.8034L214.327 42.302ZM222.086 46.5141C225.075 47.7804 228.536 48.9719 232.45 50.0972L234.661 42.4087C230.971 41.3477 227.827 40.258 225.207 39.148L222.086 46.5141ZM232.415 50.0868C238.006 51.7502 242.805 53.5766 246.841 55.5496L250.354 48.3625C245.835 46.1532 240.607 44.1775 234.696 42.419L232.415 50.0868ZM246.873 55.5653C250.871 57.4752 254.085 59.5967 256.588 61.891L261.994 55.9938C258.794 53.0602 254.879 50.5241 250.322 48.3468L246.873 55.5653ZM256.588 61.891C259.051 64.1483 260.843 66.6592 262.03 69.4292L269.384 66.2778C267.719 62.3942 265.234 58.9643 261.994 55.9938L256.588 61.891ZM262.039 69.4484C263.212 72.1464 263.846 75.3204 263.846 79.0459H271.846C271.846 74.4069 271.054 70.1192 269.375 66.2586L262.039 69.4484ZM263.846 79.0459C263.846 82.8677 263.081 86.1892 261.63 89.091L268.786 92.6687C270.852 88.5367 271.846 83.9689 271.846 79.0459H263.846ZM261.64 89.0715C260.173 91.9661 258.064 94.4716 255.244 96.5966L260.059 102.985C263.798 100.168 266.726 96.7325 268.776 92.6883L261.64 89.0715ZM255.251 96.591C252.466 98.6803 249.021 100.363 244.84 101.583L247.08 109.263C252.024 107.821 256.374 105.749 260.051 102.991L255.251 96.591ZM244.866 101.575C240.766 102.741 236.104 103.348 230.847 103.348V111.348C236.711 111.348 242.124 110.671 247.053 109.27L244.866 101.575ZM230.847 103.348C226.217 103.348 221.654 102.731 217.149 101.494L215.031 109.209C220.221 110.634 225.496 111.348 230.847 111.348V103.348ZM217.158 101.497C212.767 100.28 208.802 98.4428 205.237 95.9947L200.708 102.589C205.033 105.559 209.812 107.762 215.021 109.206L217.158 101.497ZM205.264 96.0132C201.794 93.5883 199.066 90.606 197.038 87.0462L190.087 91.0066C192.716 95.6212 196.262 99.4826 200.681 102.571L205.264 96.0132ZM197.048 87.0634C195.108 83.6186 194.069 79.4922 194.069 74.5547H186.069C186.069 80.6432 187.36 86.1646 190.077 90.9893L197.048 87.0634ZM190.069 78.5547H207.963V70.5547H190.069V78.5547ZM203.963 74.5547C203.963 78.366 204.606 81.8657 206.068 84.9116L213.28 81.4497C212.461 79.743 211.963 77.4921 211.963 74.5547H203.963ZM206.096 84.9695C207.563 87.9027 209.616 90.3529 212.24 92.2613L216.945 85.7914C215.387 84.6581 214.161 83.2113 213.252 81.3918L206.096 84.9695ZM212.289 92.2963C214.816 94.077 217.692 95.3582 220.863 96.1783L222.866 88.4331C220.524 87.8273 218.551 86.9224 216.897 85.7564L212.289 92.2963ZM220.879 96.1823C224.035 96.9849 227.363 97.375 230.847 97.375V89.375C227.962 89.375 225.301 89.0522 222.85 88.429L220.879 96.1823ZM230.847 97.375C235.378 97.375 239.442 96.7356 242.887 95.2758L239.766 87.9098C237.603 88.8262 234.68 89.375 230.847 89.375V97.375ZM242.865 95.2851C246.296 93.8554 249.125 91.7398 251.07 88.8213L244.414 84.3837C243.508 85.7426 242.06 86.9539 239.788 87.9005L242.865 95.2851ZM251.07 88.8213C252.974 85.9659 253.881 82.7073 253.881 79.1885H245.881C245.881 81.2778 245.362 82.9618 244.414 84.3837L251.07 88.8213ZM354.604 93.874L351.586 91.2493L351.578 91.2587L351.57 91.2681L354.604 93.874ZM341.06 103.926L342.647 107.597L342.661 107.591L342.675 107.585L341.06 103.926ZM306.057 103.926L304.429 107.58L304.449 107.589L304.469 107.597L306.057 103.926ZM292.44 93.874L289.438 96.5173L292.44 93.874ZM283.458 77.9766L279.666 79.2502L279.671 79.2631L279.675 79.2761L283.458 77.9766ZM283.458 30.1416L287.247 31.424L287.25 31.4152L283.458 30.1416ZM292.298 14.2441L289.282 11.617L289.279 11.6194L292.298 14.2441ZM305.914 4.19238L307.514 7.85854L307.522 7.85513L307.529 7.8517L305.914 4.19238ZM340.917 4.19238L339.302 7.8517L339.315 7.85781L339.329 7.86381L340.917 4.19238ZM354.533 14.2441L351.501 16.8527L351.508 16.8608L351.515 16.8689L354.533 14.2441ZM363.302 30.1416L359.501 31.3891L359.507 31.4066L359.513 31.424L363.302 30.1416ZM346.834 35.7021L342.949 36.6528L342.955 36.6773L342.961 36.7017L346.834 35.7021ZM341.915 24.5098L338.643 26.8105L338.663 26.8397L338.685 26.8685L341.915 24.5098ZM334.002 17.666L332.213 21.2437L332.235 21.2546L332.257 21.2653L334.002 17.666ZM312.829 17.666L314.596 21.2547L314.618 21.2438L314.64 21.2327L312.829 17.666ZM304.916 24.5098L301.668 22.1752L301.661 22.1848L304.916 24.5098ZM299.997 35.7021L303.87 36.7017L303.873 36.6917L299.997 35.7021ZM304.987 83.6084L301.722 85.9191L301.742 85.9477L301.763 85.976L304.987 83.6084ZM312.972 90.5234L311.161 94.0901L311.183 94.1012L311.205 94.1121L312.972 90.5234ZM334.145 90.5234L335.911 94.1121L335.933 94.1012L335.955 94.0901L334.145 90.5234ZM341.986 83.6084L345.258 85.9091L345.267 85.8972L345.275 85.8852L341.986 83.6084ZM346.834 72.2734L342.958 71.2839L342.953 71.3033L342.949 71.3228L346.834 72.2734ZM362.438 51.1719V56.875H370.438V51.1719H362.438ZM362.438 56.875C362.438 64.3738 361.461 70.976 359.573 76.7291L367.174 79.2241C369.372 72.5253 370.438 65.0598 370.438 56.875H362.438ZM359.573 76.7291C357.674 82.5145 354.995 87.3286 351.586 91.2493L357.623 96.4987C361.818 91.6746 364.985 85.8905 367.174 79.2241L359.573 76.7291ZM351.57 91.2681C348.204 95.1877 344.174 98.1785 339.444 100.266L342.675 107.585C348.496 105.016 353.496 101.305 357.639 96.4799L351.57 91.2681ZM339.472 100.254C334.753 102.295 329.456 103.348 323.522 103.348V111.348C330.421 111.348 336.815 110.119 342.647 107.597L339.472 100.254ZM323.522 103.348C317.641 103.348 312.367 102.297 307.644 100.254L304.469 107.597C310.297 110.118 316.667 111.348 323.522 111.348V103.348ZM307.684 100.272C302.992 98.1815 298.919 95.1793 295.443 91.2308L289.438 96.5173C293.661 101.313 298.666 105.012 304.429 107.58L307.684 100.272ZM295.443 91.2308C291.981 87.2988 289.232 82.4724 287.241 76.6771L279.675 79.2761C281.962 85.9326 285.201 91.7045 289.438 96.5173L295.443 91.2308ZM287.25 76.703C285.32 70.9583 284.321 64.3653 284.321 56.875H276.321C276.321 65.0683 277.413 72.543 279.666 79.2502L287.25 76.703ZM284.321 56.875V51.1719H276.321V56.875H284.321ZM284.321 51.1719C284.321 43.6807 285.321 37.1154 287.247 31.424L279.669 28.8592C277.413 35.5245 276.321 42.9794 276.321 51.1719H284.321ZM287.25 31.4152C289.196 25.62 291.901 20.7965 295.316 16.8689L289.279 11.6194C285.091 16.4365 281.902 22.2114 279.666 28.868L287.25 31.4152ZM295.314 16.8713C298.786 12.8857 302.845 9.89604 307.514 7.85854L304.314 0.526226C298.528 3.05122 293.509 6.76278 289.282 11.617L295.314 16.8713ZM307.529 7.8517C312.245 5.77003 317.509 4.69922 323.38 4.69922V-3.30078C316.514 -3.30078 310.134 -2.04282 304.299 0.53307L307.529 7.8517ZM323.38 4.69922C329.303 4.69922 334.59 5.77166 339.302 7.8517L342.532 0.53307C336.694 -2.04445 330.289 -3.30078 323.38 -3.30078V4.69922ZM339.329 7.86381C344.041 9.90114 348.088 12.885 351.501 16.8527L357.566 11.6356C353.375 6.76343 348.344 3.04613 342.505 0.520954L339.329 7.86381ZM351.515 16.8689C354.924 20.7895 357.602 25.6037 359.501 31.3891L367.102 28.8941C364.914 22.2277 361.747 16.4436 357.552 11.6194L351.515 16.8689ZM359.513 31.424C361.439 37.1154 362.438 43.6807 362.438 51.1719H370.438C370.438 42.9794 369.347 35.5245 367.091 28.8592L359.513 31.424ZM352.545 56.875V51.0293H344.545V56.875H352.545ZM352.545 51.0293C352.545 44.98 351.951 39.523 350.707 34.7026L342.961 36.7017C343.998 40.7211 344.545 45.4822 344.545 51.0293H352.545ZM350.719 34.7515C349.531 29.8946 347.704 25.6555 345.146 22.151L338.685 26.8685C340.498 29.3523 341.951 32.5748 342.949 36.6528L350.719 34.7515ZM345.187 22.2091C342.685 18.6502 339.535 15.9036 335.747 14.0668L332.257 21.2653C334.742 22.4701 336.868 24.286 338.643 26.8105L345.187 22.2091ZM335.791 14.0883C332.033 12.2093 327.867 11.3135 323.38 11.3135V19.3135C326.782 19.3135 329.698 19.9861 332.213 21.2437L335.791 14.0883ZM323.38 11.3135C318.894 11.3135 314.742 12.2089 311.018 14.0993L314.64 21.2327C317.095 19.9864 319.977 19.3135 323.38 19.3135V11.3135ZM311.062 14.0773C307.333 15.9133 304.203 18.6482 301.668 22.1752L308.164 26.8443C310.001 24.288 312.147 22.4604 314.596 21.2547L311.062 14.0773ZM301.661 22.1848C299.172 25.6695 297.355 29.8822 296.121 34.7126L303.873 36.6917C304.921 32.5872 306.383 29.3383 308.171 26.8347L301.661 22.1848ZM296.124 34.7026C294.88 39.523 294.286 44.98 294.286 51.0293H302.286C302.286 45.4822 302.833 40.7211 303.87 36.7017L296.124 34.7026ZM294.286 51.0293V56.875H302.286V51.0293H294.286ZM294.286 56.875C294.286 62.9255 294.88 68.4018 296.121 73.263L303.873 71.2839C302.833 67.2102 302.286 62.4209 302.286 56.875H294.286ZM296.121 73.263C297.357 78.104 299.199 82.3539 301.722 85.9191L308.252 81.2977C306.403 78.6845 304.918 75.3777 303.873 71.2839L296.121 73.263ZM301.763 85.976C304.334 89.4766 307.465 92.2135 311.161 94.0901L314.782 86.9568C312.3 85.6966 310.108 83.8235 308.211 81.2408L301.763 85.976ZM311.205 94.1121C314.919 95.9405 319.055 96.8047 323.522 96.8047V88.8047C320.101 88.8047 317.203 88.1481 314.738 86.9348L311.205 94.1121ZM323.522 96.8047C328.03 96.8047 332.191 95.9436 335.911 94.1121L332.378 86.9348C329.92 88.145 327 88.8047 323.522 88.8047V96.8047ZM335.955 94.0901C339.67 92.2041 342.772 89.4456 345.258 85.9091L338.714 81.3077C336.923 83.8545 334.797 85.7061 332.334 86.9568L335.955 94.0901ZM345.275 85.8852C347.747 82.3153 349.535 78.0633 350.719 73.2241L342.949 71.3228C341.946 75.4185 340.503 78.7231 338.698 81.3316L345.275 85.8852ZM350.71 73.263C351.951 68.4018 352.545 62.9255 352.545 56.875H344.545C344.545 62.4209 343.998 67.2102 342.958 71.2839L350.71 73.263ZM384.332 2.125V-1.875H380.332V2.125H384.332ZM453.981 16.2402L450.601 18.3788L450.614 18.399L450.627 18.419L453.981 16.2402ZM447.565 57.0176L450 60.1913L450.014 60.1809L450.027 60.1703L447.565 57.0176ZM435.161 63.2197L433.987 59.3958L433.69 59.4871L433.41 59.6233L435.161 63.2197ZM429.743 65.8574V69.8574H430.665L431.494 69.4539L429.743 65.8574ZM396.736 65.8574L392.737 65.8976L392.776 69.8574H396.736V65.8574ZM396.594 51.6709V47.6709H392.553L392.594 51.7111L396.594 51.6709ZM438.44 43.1875L434.941 41.2502L434.935 41.2611L434.929 41.2721L438.44 43.1875ZM438.512 24.7949L434.947 26.6088L434.966 26.6465L434.986 26.6838L438.512 24.7949ZM432.096 18.5928L430.284 22.1587L430.307 22.1706L430.33 22.1822L432.096 18.5928ZM402.226 16.3828V12.3828H398.226V16.3828H402.226ZM402.226 105.922V109.922H406.226V105.922H402.226ZM384.332 105.922H380.332V109.922H384.332V105.922ZM443.573 105.922L440.029 107.775L441.151 109.922H443.573V105.922ZM419.192 59.2988L419.177 55.2989L412.6 55.3239L415.648 61.1524L419.192 59.2988ZM437.941 59.2275L441.46 57.3256L440.321 55.2185L437.926 55.2276L437.941 59.2275ZM462.679 104.995H466.679V103.983L466.198 103.093L462.679 104.995ZM462.679 105.922V109.922H466.679V105.922H462.679ZM384.332 6.125H421.046V-1.875H384.332V6.125ZM421.046 6.125C428.552 6.125 434.712 7.25773 439.649 9.36766L442.793 2.01125C436.609 -0.631432 429.319 -1.875 421.046 -1.875V6.125ZM439.649 9.36766C444.54 11.458 448.13 14.4721 450.601 18.3788L457.362 14.1017C453.94 8.69323 449.022 4.67348 442.793 2.01125L439.649 9.36766ZM450.627 18.419C453.11 22.2422 454.473 27.1435 454.473 33.3496H462.473C462.473 25.9633 460.841 19.4584 457.336 14.0615L450.627 18.419ZM454.473 33.3496C454.473 38.0378 453.614 41.988 452.018 45.3005L459.224 48.7737C461.43 44.1969 462.473 39.0221 462.473 33.3496H454.473ZM452.018 45.3005C450.385 48.6887 448.091 51.5319 445.104 53.8648L450.027 60.1703C453.978 57.0853 457.055 53.2748 459.224 48.7737L452.018 45.3005ZM445.131 53.8439C442.091 56.1756 438.399 58.0419 433.987 59.3958L436.335 67.0437C441.524 65.4509 446.101 63.1825 450 60.1913L445.131 53.8439ZM433.41 59.6233L427.992 62.261L431.494 69.4539L436.912 66.8162L433.41 59.6233ZM429.743 61.8574H396.736V69.8574H429.743V61.8574ZM400.736 65.8172L400.594 51.6307L392.594 51.7111L392.737 65.8976L400.736 65.8172ZM396.594 55.6709H421.331V47.6709H396.594V55.6709ZM421.331 55.6709C426.06 55.6709 430.319 54.8326 433.907 52.9191L430.142 45.8602C428.027 46.9884 425.156 47.6709 421.331 47.6709V55.6709ZM433.907 52.9191C437.386 51.0635 440.12 48.461 441.952 45.1029L434.929 41.2721C433.909 43.1419 432.366 44.6741 430.142 45.8602L433.907 52.9191ZM441.94 45.1248C443.772 41.816 444.65 38.1446 444.65 34.2051H436.65C436.65 36.9192 436.056 39.2361 434.941 41.2502L441.94 45.1248ZM444.65 34.2051C444.65 30.0629 443.83 26.2523 442.038 22.906L434.986 26.6838C436.045 28.6605 436.65 31.1233 436.65 34.2051H444.65ZM442.077 22.9811C440.281 19.4511 437.484 16.7853 433.861 15.0034L430.33 22.1822C432.505 23.2518 433.986 24.7208 434.947 26.6088L442.077 22.9811ZM433.908 15.0268C430.278 13.1819 425.92 12.3828 421.046 12.3828V20.3828C425.106 20.3828 428.116 21.057 430.284 22.1587L433.908 15.0268ZM421.046 12.3828H402.226V20.3828H421.046V12.3828ZM398.226 16.3828V105.922H406.226V16.3828H398.226ZM402.226 101.922H384.332V109.922H402.226V101.922ZM388.332 105.922V2.125H380.332V105.922H388.332ZM447.118 104.068L422.737 57.4452L415.648 61.1524L440.029 107.775L447.118 104.068ZM419.208 63.2988L437.957 63.2275L437.926 55.2276L419.177 55.2989L419.208 63.2988ZM434.423 61.1295L459.16 106.897L466.198 103.093L441.46 57.3256L434.423 61.1295ZM458.679 104.995V105.922H466.679V104.995H458.679ZM462.679 101.922H443.573V109.922H462.679V101.922ZM514.149 2.125H518.149V-1.875H514.149V2.125ZM514.149 105.922V109.922H518.149V105.922H514.149ZM496.398 105.922H492.398V109.922H496.398V105.922ZM496.398 2.125V-1.875H492.398V2.125H496.398ZM546.729 2.125H550.729V-1.875H546.729V2.125ZM546.729 16.3828V20.3828H550.729V16.3828H546.729ZM464.104 16.3828H460.104V20.3828H464.104V16.3828ZM464.104 2.125V-1.875H460.104V2.125H464.104ZM510.149 2.125V105.922H518.149V2.125H510.149ZM514.149 101.922H496.398V109.922H514.149V101.922ZM500.398 105.922V2.125H492.398V105.922H500.398ZM496.398 6.125H514.149V-1.875H496.398V6.125ZM542.729 2.125V16.3828H550.729V2.125H542.729ZM546.729 12.3828H464.104V20.3828H546.729V12.3828ZM468.104 16.3828V2.125H460.104V16.3828H468.104ZM464.104 6.125H546.729V-1.875H464.104V6.125ZM628.354 91.7354H632.354V87.7354H628.354V91.7354ZM628.354 105.922V109.922H632.354V105.922H628.354ZM573.248 105.922H569.248V109.922H573.248V105.922ZM573.248 91.7354V87.7354H569.248V91.7354H573.248ZM578.31 2.125H582.31V-1.875H578.31V2.125ZM578.31 105.922V109.922H582.31V105.922H578.31ZM560.416 105.922H556.416V109.922H560.416V105.922ZM560.416 2.125V-1.875H556.416V2.125H560.416ZM621.154 45.4688H625.154V41.4688H621.154V45.4688ZM621.154 59.4414V63.4414H625.154V59.4414H621.154ZM573.248 59.4414H569.248V63.4414H573.248V59.4414ZM573.248 45.4688V41.4688H569.248V45.4688H573.248ZM627.998 2.125H631.998V-1.875H627.998V2.125ZM627.998 16.3828V20.3828H631.998V16.3828H627.998ZM573.248 16.3828H569.248V20.3828H573.248V16.3828ZM573.248 2.125V-1.875H569.248V2.125H573.248ZM624.354 91.7354V105.922H632.354V91.7354H624.354ZM628.354 101.922H573.248V109.922H628.354V101.922ZM577.248 105.922V91.7354H569.248V105.922H577.248ZM573.248 95.7354H628.354V87.7354H573.248V95.7354ZM574.31 2.125V105.922H582.31V2.125H574.31ZM578.31 101.922H560.416V109.922H578.31V101.922ZM564.416 105.922V2.125H556.416V105.922H564.416ZM560.416 6.125H578.31V-1.875H560.416V6.125ZM617.154 45.4688V59.4414H625.154V45.4688H617.154ZM621.154 55.4414H573.248V63.4414H621.154V55.4414ZM577.248 59.4414V45.4688H569.248V59.4414H577.248ZM573.248 49.4688H621.154V41.4688H573.248V49.4688ZM623.998 2.125V16.3828H631.998V2.125H623.998ZM627.998 12.3828H573.248V20.3828H627.998V12.3828ZM577.248 16.3828V2.125H569.248V16.3828H577.248ZM573.248 6.125H627.998V-1.875H573.248V6.125ZM650.953 105.922L646.953 105.882L646.913 109.922H650.953V105.922ZM651.096 91.7354V87.7354H647.136L647.096 91.6952L651.096 91.7354ZM689.235 87.5293L687.076 84.1622L687.068 84.1676L687.059 84.173L689.235 87.5293ZM699.073 75.4814L695.395 73.9098L695.389 73.924L695.383 73.9382L699.073 75.4814ZM700.499 36.2725L696.653 37.3713L696.659 37.3908L696.664 37.4102L700.499 36.2725ZM694.938 25.3652L691.849 27.9063L691.861 27.9211L691.874 27.9357L694.938 25.3652ZM685.956 18.6641L684.368 22.3355L684.377 22.3394L684.386 22.3432L685.956 18.6641ZM650.525 16.3828H646.525V20.3828H650.525V16.3828ZM650.525 2.125V-1.875H646.525V2.125H650.525ZM692.657 5.61816L691.145 9.32133L691.158 9.32675L691.172 9.33207L692.657 5.61816ZM707.414 15.5273L704.523 18.2915L704.531 18.2998L704.539 18.308L707.414 15.5273ZM717.038 31.0684L713.287 32.4567L717.038 31.0684ZM707.414 92.5908L710.274 95.3873L710.282 95.3794L710.289 95.3715L707.414 92.5908ZM692.443 102.5L693.918 106.218L693.926 106.215L693.934 106.212L692.443 102.5ZM660.862 2.125H664.862V-1.875H660.862V2.125ZM660.862 105.922V109.922H664.862V105.922H660.862ZM642.969 105.922H638.969V109.922H642.969V105.922ZM642.969 2.125V-1.875H638.969V2.125H642.969ZM673.124 101.922H650.953V109.922H673.124V101.922ZM654.953 105.962L655.096 91.7756L647.096 91.6952L646.953 105.882L654.953 105.962ZM651.096 95.7354H673.124V87.7354H651.096V95.7354ZM673.124 95.7354C680.123 95.7354 686.296 94.202 691.411 90.8856L687.059 84.173C683.525 86.4647 678.957 87.7354 673.124 87.7354V95.7354ZM691.395 90.8964C696.513 87.6139 700.294 82.9304 702.764 77.0247L695.383 73.9382C693.48 78.4882 690.702 81.8366 687.076 84.1622L691.395 90.8964ZM702.752 77.0531C705.247 71.2136 706.424 64.4272 706.424 56.8037H698.424C698.424 63.6281 697.367 69.2936 695.395 73.9098L702.752 77.0531ZM706.424 56.8037V51.1719H698.424V56.8037H706.424ZM706.424 51.1719C706.424 45.268 705.749 39.9058 704.334 35.1347L696.664 37.4102C697.815 41.2889 698.424 45.8596 698.424 51.1719H706.424ZM704.345 35.1736C702.981 30.3994 700.891 26.2384 698.003 22.7948L691.874 27.9357C693.928 30.3853 695.546 33.4957 696.653 37.3713L704.345 35.1736ZM698.028 22.8242C695.189 19.3737 691.671 16.7536 687.526 14.9849L684.386 22.3432C687.37 23.6162 689.84 25.4635 691.849 27.9063L698.028 22.8242ZM687.544 14.9926C683.435 13.2157 678.813 12.3828 673.766 12.3828V20.3828C677.938 20.3828 681.444 21.0708 684.368 22.3355L687.544 14.9926ZM673.766 12.3828H650.525V20.3828H673.766V12.3828ZM654.525 16.3828V2.125H646.525V16.3828H654.525ZM650.525 6.125H673.766V-1.875H650.525V6.125ZM673.766 6.125C680.2 6.125 685.976 7.21053 691.145 9.32133L694.169 1.91499C687.932 -0.631756 681.114 -1.875 673.766 -1.875V6.125ZM691.172 9.33207C696.358 11.4067 700.794 14.3912 704.523 18.2915L710.305 12.7632C705.765 8.01371 700.362 4.39213 694.143 1.90426L691.172 9.33207ZM704.539 18.308C708.309 22.2072 711.232 26.9038 713.287 32.4567L720.789 29.6801C718.377 23.1613 714.883 17.4973 710.289 12.7467L704.539 18.308ZM713.287 32.4567C715.332 37.9834 716.389 44.2524 716.389 51.3145H724.389C724.389 43.4533 723.212 36.2249 720.789 29.6801L713.287 32.4567ZM716.389 51.3145V56.8037H724.389V51.3145H716.389ZM716.389 56.8037C716.389 63.8657 715.332 70.1348 713.287 75.6615L720.789 78.4381C723.212 71.8932 724.389 64.6649 724.389 56.8037H716.389ZM713.287 75.6615C711.232 81.2143 708.309 85.911 704.539 89.8102L710.289 95.3715C714.883 90.6209 718.377 84.9569 720.789 78.4381L713.287 75.6615ZM704.554 89.7943C700.777 93.6573 696.259 96.6568 690.953 98.7882L693.934 106.212C700.224 103.686 705.687 100.079 710.274 95.3873L704.554 89.7943ZM690.968 98.7819C685.753 100.851 679.824 101.922 673.124 101.922V109.922C680.682 109.922 687.632 108.712 693.918 106.218L690.968 98.7819ZM656.862 2.125V105.922H664.862V2.125H656.862ZM660.862 101.922H642.969V109.922H660.862V101.922ZM646.969 105.922V2.125H638.969V105.922H646.969ZM642.969 6.125H660.862V-1.875H642.969V6.125ZM854.412 52.8828H858.412V48.8828H854.412V52.8828ZM854.412 92.5195L857.603 94.932L858.412 93.8615V92.5195H854.412ZM847.497 98.9355L849.873 102.153L849.881 102.147L847.497 98.9355ZM798.094 104.068L796.569 107.766L796.583 107.772L796.597 107.778L798.094 104.068ZM784.05 94.3018L781.093 96.9957L781.101 97.0046L781.109 97.0135L784.05 94.3018ZM774.996 78.6895L771.216 79.9979L771.219 80.0069L774.996 78.6895ZM774.711 29.4287L770.905 28.199L770.902 28.208L770.899 28.2171L774.711 29.4287ZM796.668 4.0498L798.211 7.74012L798.219 7.73669L798.228 7.73322L796.668 4.0498ZM835.663 4.97656L833.838 8.53583L833.856 8.54515L833.874 8.55427L835.663 4.97656ZM854.412 33.7773V37.7773H858.947L858.381 33.2776L854.412 33.7773ZM836.875 33.7773L832.924 34.4012L833.457 37.7773H836.875V33.7773ZM833.524 24.082L830.044 26.0541L830.057 26.0759L830.069 26.0975L833.524 24.082ZM826.538 17.3809L824.596 20.8775L824.628 20.8957L824.661 20.9133L826.538 17.3809ZM796.098 24.1533L792.802 21.8872L792.789 21.9048L792.777 21.9226L796.098 24.1533ZM791.464 35.2744L787.574 34.3441L791.464 35.2744ZM791.678 72.7725L787.815 73.8109L787.82 73.8302L787.825 73.8494L791.678 72.7725ZM796.953 83.9648L793.753 86.3648L793.765 86.3807L793.777 86.3965L796.953 83.9648ZM805.437 90.8799L803.731 94.498L803.752 94.508L803.773 94.5178L805.437 90.8799ZM826.752 92.1631L827.739 96.0395L827.772 96.0311L827.804 96.0221L826.752 92.1631ZM832.954 89.668L835.074 93.06L835.088 93.0513L835.102 93.0426L832.954 89.668ZM836.59 86.8164L839.494 89.5674L840.59 88.4103V86.8164H836.59ZM836.59 66.2139H840.59V62.2139H836.59V66.2139ZM814.989 66.2139H810.989V70.2139H814.989V66.2139ZM814.989 52.8828V48.8828H810.989V52.8828H814.989ZM850.412 52.8828V92.5195H858.412V52.8828H850.412ZM851.221 90.1071C850.073 91.6267 848.103 93.5035 845.113 95.7239L849.881 102.147C853.164 99.71 855.805 97.3095 857.603 94.932L851.221 90.1071ZM845.121 95.7178C842.488 97.6624 838.806 99.4674 833.931 101.047L836.397 108.658C841.788 106.911 846.328 104.771 849.873 102.153L845.121 95.7178ZM833.931 101.047C829.325 102.54 823.38 103.348 815.987 103.348V111.348C823.898 111.348 830.738 110.492 836.397 108.658L833.931 101.047ZM815.987 103.348C809.931 103.348 804.481 102.332 799.591 100.359L796.597 107.778C802.542 110.177 809.022 111.348 815.987 111.348V103.348ZM799.618 100.37C794.734 98.3568 790.537 95.4363 786.99 91.59L781.109 97.0135C785.451 101.722 790.617 105.312 796.569 107.766L799.618 100.37ZM787.007 91.6078C783.515 87.7753 780.756 83.0556 778.773 77.372L771.219 80.0069C773.514 86.585 776.791 92.2736 781.093 96.9957L787.007 91.6078ZM778.776 77.381C776.81 71.7002 775.788 65.121 775.788 57.5879H767.788C767.788 65.8334 768.905 73.3219 771.216 79.9979L778.776 77.381ZM775.788 57.5879V50.3877H767.788V57.5879H775.788ZM775.788 50.3877C775.788 42.8703 776.723 36.3045 778.523 30.6403L770.899 28.2171C768.802 34.8146 767.788 42.2214 767.788 50.3877H775.788ZM778.517 30.6584C780.372 24.9166 782.981 20.1808 786.288 16.3648L780.243 11.1254C776.136 15.8641 773.042 21.584 770.905 28.199L778.517 30.6584ZM786.288 16.3648C789.591 12.5542 793.552 9.6886 798.211 7.74012L795.125 0.359486C789.328 2.78341 784.354 6.38132 780.243 11.1254L786.288 16.3648ZM798.228 7.73322C802.936 5.73939 808.358 4.69922 814.562 4.69922V-3.30078C807.458 -3.30078 800.95 -2.10722 795.108 0.366394L798.228 7.73322ZM814.562 4.69922C822.652 4.69922 829.009 6.0593 833.838 8.53583L837.488 1.41729C831.196 -1.8093 823.485 -3.30078 814.562 -3.30078V4.69922ZM833.874 8.55427C838.861 11.0479 842.6 14.4481 845.222 18.7498L852.053 14.5861C848.592 8.90737 843.681 4.51335 837.452 1.39885L833.874 8.55427ZM845.222 18.7498C847.94 23.2085 849.699 28.3615 850.443 34.2771L858.381 33.2776C857.51 26.3612 855.419 20.1079 852.053 14.5861L845.222 18.7498ZM854.412 29.7773H836.875V37.7773H854.412V29.7773ZM840.826 33.1535C840.187 29.1036 838.919 25.391 836.98 22.0665L830.069 26.0975C831.457 28.4762 832.423 31.2271 832.924 34.4012L840.826 33.1535ZM837.005 22.11C834.994 18.5619 832.093 15.8022 828.415 13.8484L824.661 20.9133C827.067 22.1912 828.823 23.8991 830.044 26.0541L837.005 22.11ZM828.481 13.8842C824.701 11.7846 820.068 10.8857 814.847 10.8857V18.8857C819.225 18.8857 822.387 19.6503 824.596 20.8775L828.481 13.8842ZM814.847 10.8857C810.202 10.8857 805.934 11.7689 802.151 13.6606L805.728 20.816C808.218 19.5709 811.222 18.8857 814.847 18.8857V10.8857ZM802.151 13.6606C798.376 15.5476 795.255 18.3182 792.802 21.8872L799.394 26.4194C801.122 23.9051 803.229 22.0656 805.728 20.816L802.151 13.6606ZM792.777 21.9226C790.415 25.4387 788.706 29.6095 787.574 34.3441L795.354 36.2047C796.313 32.1946 797.693 28.9513 799.418 26.3841L792.777 21.9226ZM787.574 34.3441C786.44 39.0853 785.896 44.3973 785.896 50.2451H793.896C793.896 44.8768 794.397 40.2083 795.354 36.2047L787.574 34.3441ZM785.896 50.2451V57.5879H793.896V50.2451H785.896ZM785.896 57.5879C785.896 63.5596 786.517 68.9813 787.815 73.8109L795.541 71.7341C794.463 67.7238 793.896 63.0225 793.896 57.5879H785.896ZM787.825 73.8494C789.168 78.6507 791.12 82.8536 793.753 86.3648L800.153 81.5648C798.224 78.9927 796.659 75.7341 795.53 71.6955L787.825 73.8494ZM793.777 86.3965C796.478 89.9236 799.802 92.6458 803.731 94.498L807.142 87.2618C804.417 85.9773 802.086 84.0894 800.129 81.5332L793.777 86.3965ZM803.773 94.5178C807.692 96.3092 812.026 97.1611 816.7 97.1611V89.1611C813.01 89.1611 809.835 88.4923 807.1 87.242L803.773 94.5178ZM816.7 97.1611C820.968 97.1611 824.682 96.8175 827.739 96.0395L825.765 88.2867C823.594 88.8394 820.607 89.1611 816.7 89.1611V97.1611ZM827.804 96.0221C830.624 95.2533 833.099 94.2943 835.074 93.06L830.834 86.276C829.767 86.9427 828.108 87.6471 825.699 88.304L827.804 96.0221ZM835.102 93.0426C836.825 91.9461 838.331 90.7945 839.494 89.5674L833.686 84.0654C833.138 84.6443 832.22 85.3938 830.807 86.2933L835.102 93.0426ZM840.59 86.8164V66.2139H832.59V86.8164H840.59ZM836.59 62.2139H814.989V70.2139H836.59V62.2139ZM818.989 66.2139V52.8828H810.989V66.2139H818.989ZM814.989 56.8828H854.412V48.8828H814.989V56.8828ZM932.474 2.125V-1.875H928.474V2.125H932.474ZM950.296 2.125H954.296V-1.875H950.296V2.125ZM931.19 103.355L932.848 106.996L932.854 106.993L932.861 106.99L931.19 103.355ZM891.625 103.355L889.943 106.985L889.955 106.99L889.968 106.996L891.625 103.355ZM877.795 91.3076L874.403 93.4276L874.41 93.4385L874.417 93.4493L877.795 91.3076ZM872.805 2.125V-1.875H868.805V2.125H872.805ZM890.627 2.125H894.627V-1.875H890.627V2.125ZM893.193 83.8223L889.658 85.6938L889.664 85.7047L889.67 85.7155L893.193 83.8223ZM900.465 90.8799L898.72 94.4791L900.465 90.8799ZM922.636 90.8799L920.891 87.2806L920.88 87.2859L920.869 87.2912L922.636 90.8799ZM929.907 83.8223L933.431 85.7155L933.437 85.7047L933.442 85.6938L929.907 83.8223ZM932.474 6.125H950.296V-1.875H932.474V6.125ZM946.296 2.125V71.4893H954.296V2.125H946.296ZM946.296 71.4893C946.296 78.8006 944.714 84.6093 941.798 89.1446L948.528 93.4706C952.456 87.3601 954.296 79.9565 954.296 71.4893H946.296ZM941.798 89.1446C938.8 93.8087 934.738 97.3224 929.52 99.7211L932.861 106.99C939.43 103.971 944.682 99.4524 948.528 93.4706L941.798 89.1446ZM929.533 99.715C924.269 102.112 918.31 103.348 911.586 103.348V111.348C919.31 111.348 926.42 109.922 932.848 106.996L929.533 99.715ZM911.586 103.348C904.604 103.348 898.53 102.104 893.282 99.715L889.968 106.996C896.411 109.93 903.644 111.348 911.586 111.348V103.348ZM893.307 99.7262C888.141 97.3324 884.127 93.8254 881.173 89.166L874.417 93.4493C878.212 99.4357 883.417 103.961 889.943 106.985L893.307 99.7262ZM881.187 89.1876C878.348 84.6452 876.805 78.8202 876.805 71.4893H868.805C868.805 79.937 870.588 87.3242 874.403 93.4276L881.187 89.1876ZM876.805 71.4893V2.125H868.805V71.4893H876.805ZM872.805 6.125H890.627V-1.875H872.805V6.125ZM886.627 2.125V71.4893H894.627V2.125H886.627ZM886.627 71.4893C886.627 76.9054 887.551 81.7139 889.658 85.6938L896.729 81.9507C895.414 79.4671 894.627 76.0536 894.627 71.4893H886.627ZM889.67 85.7155C891.763 89.6122 894.796 92.5767 898.72 94.4791L902.21 87.2806C899.86 86.1413 898.045 84.4009 896.717 81.929L889.67 85.7155ZM898.72 94.4791C902.51 96.3167 906.839 97.1611 911.586 97.1611V89.1611C907.779 89.1611 904.693 88.4847 902.21 87.2806L898.72 94.4791ZM911.586 97.1611C916.331 97.1611 920.647 96.3175 924.402 94.4686L920.869 87.2912C918.446 88.4839 915.396 89.1611 911.586 89.1611V97.1611ZM924.381 94.4791C928.305 92.5767 931.337 89.6122 933.431 85.7155L926.384 81.929C925.055 84.4009 923.24 86.1413 920.891 87.2806L924.381 94.4791ZM933.442 85.6938C935.549 81.7139 936.474 76.9054 936.474 71.4893H928.474C928.474 76.0536 927.687 79.4671 926.372 81.9507L933.442 85.6938ZM936.474 71.4893V2.125H928.474V71.4893H936.474ZM982.162 67.2119H978.162V71.2119H982.162V67.2119ZM982.162 53.0254V49.0254H978.162V53.0254H982.162ZM1020.59 50.7441L1022.45 54.2863L1020.59 50.7441ZM1026.93 44.4707L1023.37 42.6569L1023.36 42.6693L1023.35 42.6818L1026.93 44.4707ZM1026.93 26.0068L1023.3 27.6755L1023.31 27.7117L1023.33 27.7475L1026.93 26.0068ZM1020.59 19.0205L1022.66 15.6005L1020.59 19.0205ZM987.651 16.3828V12.3828H983.651V16.3828H987.651ZM987.651 105.922V109.922H991.651V105.922H987.651ZM969.758 105.922H965.758V109.922H969.758V105.922ZM969.758 2.125V-1.875H965.758V2.125H969.758ZM1029.64 6.40234L1027.83 9.96788L1027.85 9.97706L1027.86 9.98606L1029.64 6.40234ZM1042.54 18.0938L1039.1 20.1276L1039.1 20.1348L1039.11 20.142L1042.54 18.0938ZM1029.64 63.3623L1027.99 59.7198L1027.98 59.7251L1029.64 63.3623ZM1009.18 63.2119H982.162V71.2119H1009.18V63.2119ZM986.162 67.2119V53.0254H978.162V67.2119H986.162ZM982.162 57.0254H1009.18V49.0254H982.162V57.0254ZM1009.18 57.0254C1014.27 57.0254 1018.78 56.2104 1022.45 54.2863L1018.73 47.202C1016.6 48.3195 1013.5 49.0254 1009.18 49.0254V57.0254ZM1022.45 54.2863C1026.01 52.4168 1028.77 49.7466 1030.51 46.2596L1023.35 42.6818C1022.44 44.5177 1020.96 46.0298 1018.73 47.202L1022.45 54.2863ZM1030.5 46.2845C1032.2 42.9388 1033 39.2132 1033 35.2031H1025C1025 38.1318 1024.42 40.5846 1023.37 42.6569L1030.5 46.2845ZM1033 35.2031C1033 31.343 1032.18 27.6799 1030.53 24.2662L1023.33 27.7475C1024.44 30.0368 1025 32.5047 1025 35.2031H1033ZM1030.57 24.3382C1028.88 20.6657 1026.2 17.7461 1022.66 15.6005L1018.51 22.4405C1020.77 23.8118 1022.32 25.5498 1023.3 27.6755L1030.57 24.3382ZM1022.66 15.6005C1018.94 13.343 1014.35 12.3828 1009.18 12.3828V20.3828C1013.43 20.3828 1016.44 21.1811 1018.51 22.4405L1022.66 15.6005ZM1009.18 12.3828H987.651V20.3828H1009.18V12.3828ZM983.651 16.3828V105.922H991.651V16.3828H983.651ZM987.651 101.922H969.758V109.922H987.651V101.922ZM973.758 105.922V2.125H965.758V105.922H973.758ZM969.758 6.125H1009.18V-1.875H969.758V6.125ZM1009.18 6.125C1016.75 6.125 1022.91 7.46988 1027.83 9.96788L1031.45 2.8368C1025.15 -0.368313 1017.67 -1.875 1009.18 -1.875V6.125ZM1027.86 9.98606C1032.89 12.4779 1036.58 15.864 1039.1 20.1276L1045.99 16.0599C1042.61 10.343 1037.7 5.93486 1031.42 2.81863L1027.86 9.98606ZM1039.11 20.142C1041.65 24.4007 1042.96 29.334 1042.96 35.0605H1050.96C1050.96 28.0501 1049.33 21.6722 1045.98 16.0455L1039.11 20.142ZM1042.96 35.0605C1042.96 41.1645 1041.63 46.1599 1039.14 50.2199L1045.95 54.4051C1049.35 48.8649 1050.96 42.359 1050.96 35.0605H1042.96ZM1039.14 50.2199C1036.65 54.2704 1032.99 57.4479 1027.99 59.7198L1031.29 67.0048C1037.6 64.1439 1042.55 59.9548 1045.95 54.4051L1039.14 50.2199ZM1027.98 59.7251C1023.02 61.9917 1016.8 63.2119 1009.18 63.2119V71.2119C1017.62 71.2119 1025.04 69.8657 1031.31 66.9995L1027.98 59.7251ZM1075.41 67.2119H1071.41V71.2119H1075.41V67.2119ZM1075.41 53.0254V49.0254H1071.41V53.0254H1075.41ZM1113.83 50.7441L1115.69 54.2863L1113.83 50.7441ZM1120.18 44.4707L1116.61 42.6569L1116.61 42.6693L1116.6 42.6818L1120.18 44.4707ZM1120.18 26.0068L1116.54 27.6755L1116.56 27.7117L1116.58 27.7475L1120.18 26.0068ZM1113.83 19.0205L1115.91 15.6005L1113.83 19.0205ZM1080.9 16.3828V12.3828H1076.9V16.3828H1080.9ZM1080.9 105.922V109.922H1084.9V105.922H1080.9ZM1063 105.922H1059V109.922H1063V105.922ZM1063 2.125V-1.875H1059V2.125H1063ZM1122.89 6.40234L1121.07 9.96788L1121.09 9.97706L1121.11 9.98606L1122.89 6.40234ZM1135.79 18.0938L1132.35 20.1276L1132.35 20.1348L1132.35 20.142L1135.79 18.0938ZM1122.89 63.3623L1121.23 59.7198L1121.22 59.7251L1122.89 63.3623ZM1102.43 63.2119H1075.41V71.2119H1102.43V63.2119ZM1079.41 67.2119V53.0254H1071.41V67.2119H1079.41ZM1075.41 57.0254H1102.43V49.0254H1075.41V57.0254ZM1102.43 57.0254C1107.51 57.0254 1112.02 56.2104 1115.69 54.2863L1111.97 47.202C1109.84 48.3195 1106.75 49.0254 1102.43 49.0254V57.0254ZM1115.69 54.2863C1119.26 52.4168 1122.01 49.7466 1123.76 46.2596L1116.6 42.6818C1115.68 44.5177 1114.21 46.0298 1111.97 47.202L1115.69 54.2863ZM1123.74 46.2845C1125.45 42.9388 1126.25 39.2132 1126.25 35.2031H1118.25C1118.25 38.1318 1117.67 40.5846 1116.61 42.6569L1123.74 46.2845ZM1126.25 35.2031C1126.25 31.343 1125.43 27.6799 1123.78 24.2662L1116.58 27.7475C1117.68 30.0368 1118.25 32.5047 1118.25 35.2031H1126.25ZM1123.81 24.3382C1122.13 20.6657 1119.44 17.7461 1115.91 15.6005L1111.76 22.4405C1114.02 23.8118 1115.57 25.5498 1116.54 27.6755L1123.81 24.3382ZM1115.91 15.6005C1112.19 13.343 1107.59 12.3828 1102.43 12.3828V20.3828C1106.67 20.3828 1109.68 21.1811 1111.76 22.4405L1115.91 15.6005ZM1102.43 12.3828H1080.9V20.3828H1102.43V12.3828ZM1076.9 16.3828V105.922H1084.9V16.3828H1076.9ZM1080.9 101.922H1063V109.922H1080.9V101.922ZM1067 105.922V2.125H1059V105.922H1067ZM1063 6.125H1102.43V-1.875H1063V6.125ZM1102.43 6.125C1110 6.125 1116.16 7.46988 1121.07 9.96788L1124.7 2.8368C1118.4 -0.368313 1110.92 -1.875 1102.43 -1.875V6.125ZM1121.11 9.98606C1126.14 12.4779 1129.83 15.864 1132.35 20.1276L1139.23 16.0599C1135.86 10.343 1130.95 5.93486 1124.66 2.81863L1121.11 9.98606ZM1132.35 20.142C1134.89 24.4007 1136.21 29.334 1136.21 35.0605H1144.21C1144.21 28.0501 1142.58 21.6722 1139.23 16.0455L1132.35 20.142ZM1136.21 35.0605C1136.21 41.1645 1134.87 46.1599 1132.38 50.2199L1139.2 54.4051C1142.6 48.8649 1144.21 42.359 1144.21 35.0605H1136.21ZM1132.38 50.2199C1129.89 54.2704 1126.24 57.4479 1121.23 59.7198L1124.54 67.0048C1130.84 64.1439 1135.79 59.9548 1139.2 54.4051L1132.38 50.2199ZM1121.22 59.7251C1116.27 61.9917 1110.05 63.2119 1102.43 63.2119V71.2119C1110.87 71.2119 1118.29 69.8657 1124.55 66.9995L1121.22 59.7251ZM1166.16 2.125L1169.76 0.375591L1168.66 -1.875H1166.16V2.125ZM1190.25 51.6709L1186.66 53.4203L1190.25 60.8168L1193.85 53.4203L1190.25 51.6709ZM1214.35 2.125V-1.875H1211.85L1210.75 0.375591L1214.35 2.125ZM1234.17 2.125L1237.7 4.00536L1240.83 -1.875H1234.17V2.125ZM1199.24 67.7109L1195.71 65.8306L1195.24 66.7121V67.7109H1199.24ZM1199.24 105.922V109.922H1203.24V105.922H1199.24ZM1181.2 105.922H1177.2V109.922H1181.2V105.922ZM1181.2 67.7109H1185.2V66.7121L1184.73 65.8306L1181.2 67.7109ZM1146.27 2.125V-1.875H1139.61L1142.74 4.00536L1146.27 2.125ZM1162.56 3.87441L1186.66 53.4203L1193.85 49.9215L1169.76 0.375591L1162.56 3.87441ZM1193.85 53.4203L1217.95 3.87441L1210.75 0.375591L1186.66 49.9215L1193.85 53.4203ZM1214.35 6.125H1234.17V-1.875H1214.35V6.125ZM1230.64 0.24464L1195.71 65.8306L1202.77 69.5913L1237.7 4.00536L1230.64 0.24464ZM1195.24 67.7109V105.922H1203.24V67.7109H1195.24ZM1199.24 101.922H1181.2V109.922H1199.24V101.922ZM1185.2 105.922V67.7109H1177.2V105.922H1185.2ZM1184.73 65.8306L1149.8 0.24464L1142.74 4.00536L1177.67 69.5913L1184.73 65.8306ZM1146.27 6.125H1166.16V-1.875H1146.27V6.125Z" fill="white" fill-opacity="0.2"/>
</svg>
