<svg width="24" height="24" viewBox="0 0 24 24" fill="none" xmlns="http://www.w3.org/2000/svg">
<rect width="24" height="24" fill="#A7A8B3"/>
<g clip-path="url(#clip0_0_1)">
<rect width="1366" height="768" transform="translate(-1205 -24)" fill="#282830"/>
<g clip-path="url(#clip1_0_1)">
<path d="M9.04173 19.003H14.9583C14.7196 20.4211 13.486 21.5015 12 21.5015C10.514 21.5015 9.28037 20.4211 9.04173 19.003ZM12 2.00391C16.1421 2.00391 19.5 5.36177 19.5 9.50391V13.5024L20.9183 16.6625C20.9732 16.7848 21.0016 16.9174 21.0016 17.0515C21.0016 17.5762 20.5763 18.0015 20.0516 18.0015H3.95219C3.8184 18.0015 3.68613 17.9733 3.56402 17.9186C3.08515 17.7042 2.87073 17.1422 3.08511 16.6633L4.50001 13.5028L4.50011 9.49099L4.50453 9.24107C4.6436 5.21035 7.95588 2.00391 12 2.00391Z" fill="#83888D"/>
<path d="M17 7C19.2091 7 21 5.20914 21 3C21 0.790861 19.2091 -1 17 -1C14.7909 -1 13 0.790861 13 3C13 5.20914 14.7909 7 17 7Z" fill="#E94D3F" stroke="#282830" stroke-width="2"/>
</g>
<path d="M161 47H-1005V49H161V47Z" fill="#2F2F36" mask="url(#path-1-inside-1_0_1)"/>
</g>
<defs>
<clipPath id="clip0_0_1">
<rect width="1366" height="768" fill="white" transform="translate(-1205 -24)"/>
</clipPath>
<clipPath id="clip1_0_1">
<rect width="24" height="24" fill="white"/>
</clipPath>
</defs>
</svg>
