<svg width="20" height="21" viewBox="0 0 20 21" fill="none" xmlns="http://www.w3.org/2000/svg">
<path d="M4.5 17.5009C3.7203 17.5009 3.07955 16.9061 3.00687 16.1454L3 16.0009V5.00092C3 4.22122 3.59489 3.58047 4.35554 3.50779L4.5 3.50092H9C9.7797 3.50092 10.4204 4.09581 10.4931 4.85646L10.5 5.00092V5.25535L12.6886 2.9861C13.2276 2.42691 14.0959 2.3766 14.6956 2.84798L14.8118 2.94922L17.5694 5.67387C18.1219 6.21976 18.1614 7.08861 17.68 7.68505L17.5767 7.80053L15.266 10.0003L15.5 10.0009C16.2797 10.0009 16.9204 10.5958 16.9931 11.3565L17 11.5009V16.0009C17 16.7806 16.4051 17.4214 15.6445 17.4941L15.5 17.5009H4.5ZM9.5 11.0009H4V16.0009C4 16.2157 4.13542 16.3989 4.32553 16.4697L4.41012 16.4929L4.5 16.5009H9.5V11.0009ZM15.5 11.0009H10.5V16.5009H15.5C15.7455 16.5009 15.9496 16.3241 15.9919 16.0908L16 16.0009V11.5009C16 11.2555 15.8231 11.0513 15.5899 11.009L15.5 11.0009ZM10.5 8.21035V10.0003H12.29L10.5 8.21035ZM9 4.50092H4.5C4.25454 4.50092 4.05039 4.67779 4.00806 4.91104L4 5.00092V10.0009H9.5V5.00092C9.5 4.78614 9.36458 4.60299 9.17447 4.5322L9.08988 4.50898L9 4.50092ZM14.1222 3.67357C13.9396 3.49744 13.6692 3.48247 13.4768 3.62096L13.4086 3.68007L10.7926 6.39421C10.6271 6.56592 10.6086 6.82593 10.7356 7.01736L10.799 7.09475L13.4147 9.71047C13.5826 9.87838 13.8409 9.90227 14.0345 9.78022L14.1131 9.71898L16.8708 7.09231C17.0433 6.91771 17.061 6.64817 16.9248 6.45411L16.8665 6.38521L14.1222 3.67357Z" fill="#71C9EC"/>
</svg>
