<svg width="20" height="21" viewBox="0 0 20 21" fill="none" xmlns="http://www.w3.org/2000/svg">
<path d="M13.8907 3H3.54199L3.41362 3.00432C2.43796 3.0703 1.66699 3.88262 1.66699 4.875V13.6269L1.67132 13.7552C1.73729 14.7309 2.54961 15.5019 3.54199 15.5019L7.08283 15.5017V17.5833L5.62533 17.5837L5.54052 17.5894C5.23545 17.6307 5.00033 17.8923 5.00033 18.2087C5.00033 18.5539 5.28015 18.8337 5.62533 18.8337H14.3753L14.4602 18.828C14.7652 18.7866 15.0003 18.5251 15.0003 18.2087C15.0003 17.8635 14.7205 17.5837 14.3753 17.5837L12.9162 17.5833V15.5017L16.4577 15.5019L16.5861 15.4976C17.5617 15.4316 18.3327 14.6192 18.3327 13.6269V8.41708H17.0827V13.6269L17.077 13.7117C17.0356 14.0167 16.7741 14.2519 16.4577 14.2519H3.54199L3.45718 14.2462C3.15212 14.2048 2.91699 13.9433 2.91699 13.6269V4.875L2.9227 4.79019C2.96408 4.48513 3.22558 4.25 3.54199 4.25H13.7502V3.62541C13.7502 3.40158 13.8006 3.18953 13.8907 3ZM8.33199 15.5017H11.6653L11.6662 17.5837H8.33283L8.33199 15.5017ZM14.5835 3.625C14.5835 3.27983 14.8633 3 15.2085 3H18.5417C18.8868 3 19.1667 3.27983 19.1667 3.625V6.95833C19.1667 7.30351 18.8868 7.58333 18.5417 7.58333H15.2085C14.8633 7.58333 14.5835 7.30351 14.5835 6.95833V6.33333H14.3142C14.1221 6.33333 13.9515 6.45629 13.8907 6.63859L13.1292 8.92333C12.8982 9.61608 12.2499 10.0833 11.5197 10.0833H10.8335V11.5417C10.8335 11.8868 10.5537 12.1667 10.2085 12.1667H6.87533C6.53015 12.1667 6.25033 11.8868 6.25033 11.5417V8.20833C6.25033 7.86316 6.53015 7.58333 6.87533 7.58333H10.2085C10.5537 7.58333 10.8335 7.86316 10.8335 8.20833V8.83333H11.5197C11.7119 8.83333 11.8825 8.71037 11.9432 8.52807L12.7048 6.2433C12.9357 5.55058 13.5841 5.08333 14.3142 5.08333H14.5835V3.625ZM15.8335 5.72327V6.33333H17.9167V4.25H15.8335V5.6934C15.8336 5.69837 15.8337 5.70334 15.8337 5.70833C15.8337 5.71332 15.8336 5.7183 15.8335 5.72327ZM7.50033 8.83333V10.9167H9.58349V8.83333H7.50033Z" fill="#71C9EC"/>
</svg>
