<svg width="20" height="21" viewBox="0 0 20 21" fill="none" xmlns="http://www.w3.org/2000/svg">
<path d="M4.5 3.5C3.67157 3.5 3 4.17157 3 5V7C3 7.82843 3.67157 8.5 4.5 8.5H5V12.3407C4.92593 12.3835 4.85618 12.4366 4.79282 12.4999L2.99992 14.2928C2.6094 14.6833 2.6094 15.3165 2.99992 15.707L4.79282 17.4999C5.18334 17.8904 5.81651 17.8904 6.20703 17.4999L7.99993 15.707C8.06325 15.6437 8.1163 15.574 8.15909 15.5H12V16C12 16.8284 12.6716 17.5 13.5 17.5H15.5C16.3284 17.5 17 16.8284 17 16V14C17 13.1716 16.3284 12.5 15.5 12.5H13.5C12.6716 12.5 12 13.1716 12 14V14.5H8.15917C8.11637 14.4259 8.06329 14.3562 7.99992 14.2928L6.20703 12.4999C6.14371 12.4366 6.07401 12.3835 6 12.3408V8.5H6.5C7.32843 8.5 8 7.82843 8 7V5C8 4.17157 7.32843 3.5 6.5 3.5H4.5ZM4 5C4 4.72386 4.22386 4.5 4.5 4.5H6.5C6.77614 4.5 7 4.72386 7 5V7C7 7.27614 6.77614 7.5 6.5 7.5H4.5C4.22386 7.5 4 7.27614 4 7V5ZM3.70703 14.9999L5.49992 13.207L7.29282 14.9999L5.49992 16.7928L3.70703 14.9999ZM13.5 13.5H15.5C15.7761 13.5 16 13.7239 16 14V16C16 16.2761 15.7761 16.5 15.5 16.5H13.5C13.2239 16.5 13 16.2761 13 16V14C13 13.7239 13.2239 13.5 13.5 13.5Z" fill="white"/>
</svg>
