<svg width="24" height="24" viewBox="0 0 24 24" fill="none" xmlns="http://www.w3.org/2000/svg">
<path d="M3.71484 3.19141C3.71484 2.67364 4.13458 2.25391 4.65234 2.25391C5.17011 2.25391 5.58984 2.67364 5.58984 3.19141V7.82732L9.03721 4.22919C9.95326 3.25928 11.4764 2.48502 13.148 2.32262C14.8575 2.15656 16.7606 2.62843 18.3445 4.21231C19.9564 5.82418 20.3788 7.70702 20.2202 9.33535C20.0663 10.9137 19.3628 12.3038 18.631 13.0367L18.6295 13.0382L10.2246 21.5105C9.86004 21.878 9.26641 21.8804 8.89884 21.5158C8.53126 21.1511 8.52886 20.5575 8.89351 20.1899L17.301 11.7149L17.3036 11.7123C17.6963 11.3198 18.2375 10.3488 18.3539 9.15355C18.4656 8.00717 18.183 6.70249 17.0187 5.53814C15.8748 4.39428 14.5454 4.0707 13.3293 4.18884C12.077 4.31049 10.9829 4.89871 10.3987 5.51836L10.3935 5.52379L6.68917 9.39017H11.5166C12.0344 9.39017 12.4541 9.80995 12.4541 10.3277C12.4541 10.8455 12.0344 11.2652 11.5166 11.2652H4.65234C4.13458 11.2652 3.71484 10.8455 3.71484 10.3277V3.19141Z" fill="white"/>
</svg>
