<svg width="20" height="21" viewBox="0 0 20 21" fill="none" xmlns="http://www.w3.org/2000/svg">
<path d="M13.2141 12.2148C12.8591 12.2148 12.5713 12.5026 12.5713 12.8577C12.5713 13.2127 12.8591 13.5006 13.2141 13.5006H15.357C15.7121 13.5006 15.9999 13.2127 15.9999 12.8577C15.9999 12.5026 15.7121 12.2148 15.357 12.2148H13.2141Z" fill="white"/>
<path d="M3.393 4.07227C2.30815 4.07227 1.42871 4.95171 1.42871 6.03655V14.2508C1.42871 15.3357 2.30815 16.2151 3.393 16.2151H16.6073C17.6921 16.2151 18.5716 15.3357 18.5716 14.2508V6.03655C18.5716 4.95171 17.6921 4.07227 16.6073 4.07227H3.393ZM2.50014 14.2508V8.71512H17.5001V14.2508C17.5001 14.744 17.1004 15.1437 16.6073 15.1437H3.393C2.89988 15.1437 2.50014 14.744 2.50014 14.2508ZM2.50014 7.64369V6.03655C2.50014 5.54344 2.89988 5.14369 3.393 5.14369H16.6073C17.1004 5.14369 17.5001 5.54344 17.5001 6.03655V7.64369H2.50014Z" fill="white"/>
</svg>
