<svg width="32" height="32" viewBox="0 0 32 32" fill="none" xmlns="http://www.w3.org/2000/svg">
<path d="M14 3.66797C14 3.11568 13.5523 2.66797 13 2.66797C12.4477 2.66797 12 3.11568 12 3.66797V4.67078C12 5.51406 12.261 6.2964 12.7065 6.94144C10.8494 7.58012 9.48677 9.28189 9.34547 11.3199H9.01662L9.00422 11.3199C7.34738 11.313 6.00979 9.96436 6.01665 8.30752L6.02483 6.32672C6.02711 5.77444 5.58126 5.32488 5.02898 5.3226C4.4767 5.32032 4.02714 5.76617 4.02486 6.31845L4.01666 8.29925C4.00525 11.0606 6.23455 13.3085 8.99595 13.3199L9.01662 13.3199H9.33335V15.3328H3.66669C3.11441 15.3328 2.66669 15.7805 2.66669 16.3328C2.66669 16.8851 3.11441 17.3328 3.66669 17.3328H9.33335V19.9892H9.01662L8.99595 19.9893C6.23455 20.0007 4.00525 22.2485 4.01666 25.0099L4.02486 26.9907C4.02714 27.5429 4.4767 27.9888 5.02898 27.9865C5.58126 27.9843 6.02711 27.5347 6.02483 26.9824L6.01665 25.0016C6.00979 23.3448 7.34738 21.9961 9.00422 21.9893L9.01662 21.9892H9.63513C10.4813 24.6996 13.0109 26.6668 16 26.6668C18.9891 26.6668 21.5188 24.6996 22.365 21.9892H22.9834L22.9958 21.9893C24.6527 21.9961 25.9903 23.3448 25.9834 25.0016L25.9752 26.9824C25.973 27.5347 26.4188 27.9843 26.9711 27.9865C27.5234 27.9888 27.973 27.5429 27.9752 26.9907L27.9834 25.0099C27.9948 22.2485 25.7655 20.0007 23.004 19.9893L22.9834 19.9892H22.6667V17.3328H28.3352C28.8875 17.3328 29.3352 16.8851 29.3352 16.3328C29.3352 15.7805 28.8875 15.3328 28.3352 15.3328H22.6667V13.3199H22.9834L23.004 13.3199C25.7655 13.3085 27.9948 11.0606 27.9834 8.29925L27.9752 6.31845C27.973 5.76617 27.5234 5.32032 26.9711 5.3226C26.4188 5.32488 25.973 5.77444 25.9752 6.32672L25.9834 8.30752C25.9903 9.96436 24.6527 11.313 22.9958 11.3199L22.9834 11.3199H22.6546C22.5132 9.28189 21.1507 7.58013 19.2935 6.94144C19.7391 6.2964 20 5.51406 20 4.67078V3.66797C20 3.11568 19.5523 2.66797 19 2.66797C18.4478 2.66797 18 3.11568 18 3.66797V4.67078C18 5.77534 17.1046 6.67078 16 6.67078C14.8955 6.67078 14 5.77534 14 4.67078V3.66797ZM11.3334 11.6708C11.3334 10.014 12.6765 8.67081 14.3334 8.67081H17.6667C19.3235 8.67081 20.6667 10.014 20.6667 11.6708V20.0001C20.6667 22.5775 18.5774 24.6668 16 24.6668C13.4227 24.6668 11.3334 22.5775 11.3334 20.0001V11.6708Z" fill="#E0E0E0"/>
</svg>
