<svg width="20" height="21" viewBox="0 0 20 21" fill="none" xmlns="http://www.w3.org/2000/svg">
<path d="M17.8536 3.35355C18.0488 3.15829 18.0488 2.84171 17.8536 2.64645C17.6583 2.45118 17.3417 2.45118 17.1464 2.64645L14.4781 5.31475C12.8949 4.07957 10.6024 4.19014 9.14607 5.64646L8.84607 5.94646C8.26421 6.52832 8.26421 7.47171 8.84607 8.05357L12.4461 11.6536C13.0279 12.2354 13.9713 12.2354 14.5532 11.6536L14.8532 11.3536C16.3094 9.89737 16.42 7.60518 15.1852 6.02191L17.8536 3.35355ZM13.8461 10.9465C13.6547 11.1378 13.3445 11.1378 13.1532 10.9465L9.55318 7.34646C9.36184 7.15513 9.36184 6.84491 9.55318 6.65357L9.85318 6.35357C11.0386 5.16812 12.9606 5.16812 14.1461 6.35357C15.3315 7.53902 15.3315 9.46101 14.1461 10.6465L13.8461 10.9465ZM7.55393 9.34643C6.97207 8.76457 6.02869 8.76457 5.44682 9.34643L5.14683 9.64643C3.69063 11.1026 3.57995 13.3948 4.8148 14.9781L2.14645 17.6464C1.95118 17.8417 1.95118 18.1583 2.14645 18.3536C2.34171 18.5488 2.65829 18.5488 2.85355 18.3536L5.52186 15.6852C7.10515 16.9204 9.39761 16.8099 10.8539 15.3535L11.1539 15.0535C11.7358 14.4717 11.7358 13.5283 11.1539 12.9464L7.55393 9.34643ZM6.15393 10.0535C6.34527 9.8622 6.65549 9.8622 6.84682 10.0535L10.4468 13.6535C10.6382 13.8449 10.6382 14.1551 10.4468 14.3464L10.1468 14.6464C8.96137 15.8319 7.03938 15.8319 5.85393 14.6464C4.66848 13.461 4.66848 11.539 5.85393 10.3535L6.15393 10.0535Z" fill="white"/>
</svg>
