<svg width="16" height="16" viewBox="0 0 16 16" fill="none" xmlns="http://www.w3.org/2000/svg">
<path d="M7.99967 1.16602C9.15501 1.16602 10.0991 2.07032 10.1629 3.20974L10.1663 3.33268H13.6663C13.9425 3.33268 14.1663 3.55654 14.1663 3.83268C14.1663 4.08582 13.9782 4.29501 13.7342 4.32812L13.6663 4.33268H13.1357L12.2823 13.0121C12.1938 13.9115 11.4653 14.606 10.5747 14.6623L10.4577 14.666H5.54163C4.6379 14.666 3.87544 14.009 3.73223 13.1283L3.7171 13.0121L2.86301 4.33268H2.33301C2.07987 4.33268 1.87068 4.14458 1.83757 3.90053L1.83301 3.83268C1.83301 3.57955 2.02111 3.37036 2.26516 3.33725L2.33301 3.33268H5.83301C5.83301 2.13606 6.80307 1.16602 7.99967 1.16602ZM12.131 4.33268H3.86767L4.71229 12.9143C4.75146 13.3124 5.06656 13.6222 5.45691 13.6617L5.54163 13.666H10.4577C10.8578 13.666 11.1969 13.3827 11.2745 12.9981L11.2871 12.9143L12.131 4.33268ZM9.16634 6.16602C9.41947 6.16602 9.62867 6.35412 9.66181 6.59817L9.66634 6.66602V11.3327C9.66634 11.6088 9.44247 11.8327 9.16634 11.8327C8.91321 11.8327 8.70401 11.6445 8.67087 11.4005L8.66634 11.3327V6.66602C8.66634 6.38988 8.89021 6.16602 9.16634 6.16602ZM6.83301 6.16602C7.08614 6.16602 7.29534 6.35412 7.32847 6.59817L7.33301 6.66602V11.3327C7.33301 11.6088 7.10914 11.8327 6.83301 11.8327C6.57987 11.8327 6.37068 11.6445 6.33757 11.4005L6.33301 11.3327V6.66602C6.33301 6.38988 6.55687 6.16602 6.83301 6.16602ZM7.99967 2.16602C7.38754 2.16602 6.88554 2.63742 6.83687 3.237L6.83301 3.33268H9.16634C9.16634 2.68835 8.64401 2.16602 7.99967 2.16602Z" fill="#D0D0D0"/>
</svg>
