<svg width="49" height="48" viewBox="0 0 49 48" fill="none" xmlns="http://www.w3.org/2000/svg">
<rect x="0.333008" width="48" height="48" rx="24" fill="url(#paint0_linear_9544_2531)"/>
<path d="M24.3332 17.5996C24.775 17.5996 25.1332 17.9578 25.1332 18.3996V26.3996C25.1332 26.8414 24.775 27.1996 24.3332 27.1996C23.8914 27.1996 23.5332 26.8414 23.5332 26.3996V18.3996C23.5332 17.9578 23.8914 17.5996 24.3332 17.5996Z" fill="white"/>
<path d="M24.3328 31.2008C24.9955 31.2008 25.5328 30.6635 25.5328 30.0008C25.5328 29.3381 24.9955 28.8008 24.3328 28.8008C23.6701 28.8008 23.1328 29.3381 23.1328 30.0008C23.1328 30.6635 23.6701 31.2008 24.3328 31.2008Z" fill="white"/>
<path d="M23.8891 11.3336C24.1578 11.1544 24.5079 11.1544 24.7767 11.3336C27.8776 13.401 31.2315 14.6909 34.8459 15.2073C35.24 15.2636 35.5328 15.6011 35.5328 15.9992V23.1992C35.5328 29.4253 31.8416 33.9683 24.62 36.7459C24.4352 36.817 24.2305 36.817 24.0456 36.7459C16.824 33.9683 13.1328 29.4253 13.1328 23.1992V15.9992C13.1328 15.6011 13.4256 15.2636 13.8197 15.2073C17.4341 14.6909 20.7879 13.401 23.8891 11.3336ZM23.6914 13.3525C20.8972 15.0329 17.9095 16.1441 14.7328 16.6838V23.1992C14.7328 28.6264 17.8815 32.5807 24.3328 35.1403C30.7842 32.5807 33.9328 28.6264 33.9328 23.1992V16.6838C30.7562 16.1441 27.7685 15.0329 24.9743 13.3525L24.3328 12.9547L23.6914 13.3525Z" fill="white"/>
<defs>
<linearGradient id="paint0_linear_9544_2531" x1="0.333007" y1="24.0117" x2="48.333" y2="24.0117" gradientUnits="userSpaceOnUse">
<stop stop-color="#71C9EC"/>
<stop offset="1" stop-color="#833FB4"/>
</linearGradient>
</defs>
</svg>
