<svg width="16" height="16" viewBox="0 0 16 16" fill="none" xmlns="http://www.w3.org/2000/svg">
<g clip-path="url(#clip0_8865_79934)">
<path d="M15.7426 8.14945C15.7426 7.49394 15.6916 7.01559 15.5811 6.51953H8.3999V9.47819H12.6151C12.5302 10.2135 12.0712 11.3208 11.0514 12.0648L11.0371 12.1639L13.3077 13.9973L13.465 14.0137C14.9097 12.6229 15.7426 10.5766 15.7426 8.14945Z" fill="#71C9EC"/>
<path d="M8.39946 15.9446C10.4646 15.9446 12.1982 15.2359 13.4646 14.0135L11.051 12.0646C10.4051 12.5341 9.53824 12.8618 8.39946 12.8618C6.37683 12.8618 4.66015 11.4711 4.0482 9.54883L3.9585 9.55677L1.59753 11.4613L1.56665 11.5508C2.82442 14.1551 5.40797 15.9446 8.39946 15.9446Z" fill="#34A853"/>
<path d="M4.04786 9.54985C3.88639 9.05379 3.79295 8.52225 3.79295 7.97306C3.79295 7.4238 3.8864 6.89232 4.03937 6.39626L4.03509 6.29061L1.64454 4.35547L1.56632 4.39425C1.04794 5.47498 0.750488 6.6886 0.750488 7.97306C0.750488 9.25751 1.04794 10.4711 1.56632 11.5518L4.04786 9.54985Z" fill="#FBBC05"/>
<path d="M8.39944 3.08269C9.83566 3.08269 10.8045 3.72934 11.3569 4.26974L13.5155 2.07286C12.1898 0.788397 10.4645 0 8.39944 0C5.40795 0 2.82441 1.78937 1.56665 4.39371L4.0397 6.39573C4.66014 4.47347 6.37682 3.08269 8.39944 3.08269Z" fill="#EB4335"/>
</g>
<defs>
<clipPath id="clip0_8865_79934">
<rect width="15" height="16" fill="white" transform="translate(0.75)"/>
</clipPath>
</defs>
</svg>
