<svg width="20" height="21" viewBox="0 0 20 21" fill="none" xmlns="http://www.w3.org/2000/svg">
<path d="M2.5 5.70833C2.5 4.21256 3.71256 3 5.20833 3H14.7917C16.2874 3 17.5 4.21256 17.5 5.70833V15.2917C17.5 16.7874 16.2874 18 14.7917 18H5.20833C3.71256 18 2.5 16.7874 2.5 15.2917V5.70833ZM5.20833 4.25C4.40292 4.25 3.75 4.90292 3.75 5.70833V15.2917C3.75 16.0971 4.40292 16.75 5.20833 16.75H7.08333V4.25H5.20833ZM11.6667 16.75V13.4167H8.33333V16.75H11.6667ZM12.9167 16.75H14.7917C15.5971 16.75 16.25 16.0971 16.25 15.2917V13.4167H12.9167V16.75ZM12.9167 12.1667H16.25V8.83333H12.9167V12.1667ZM11.6667 8.83333H8.33333V12.1667H11.6667V8.83333ZM11.6667 7.58333V4.25H8.33333V7.58333H11.6667ZM12.9167 7.58333H16.25V5.70833C16.25 4.90292 15.5971 4.25 14.7917 4.25H12.9167V7.58333Z" fill="white"/>
</svg>
