<svg width="20" height="20" viewBox="0 0 20 20" fill="none" xmlns="http://www.w3.org/2000/svg">
<path fill-rule="evenodd" clip-rule="evenodd" d="M12.4951 10.2162C12.4951 13.65 9.69854 16.4324 6.24757 16.4324C2.79659 16.4324 0 13.6494 0 10.2162C0 6.78295 2.79728 4 6.24757 4C9.69784 4 12.4951 6.78295 12.4951 10.2162Z" fill="#FF3D57"/>
<path fill-rule="evenodd" clip-rule="evenodd" d="M13.7507 4C12.3496 4 11.0596 4.46436 10.0173 5.23954L10.0223 5.24016C10.2273 5.43719 10.4535 5.57586 10.6279 5.80269L9.32796 5.82321C9.12423 6.02775 8.93861 6.25028 8.76364 6.48153H11.0559C11.2303 6.68975 11.3915 6.8707 11.5377 7.10066H8.34807C8.2312 7.30083 8.1231 7.50659 8.02872 7.72039H11.9009C12.0021 7.93359 12.0927 8.09462 12.1696 8.32029H7.79937C7.73002 8.53478 7.67066 8.75418 7.62564 8.97793H12.3527C12.399 9.19304 12.4346 9.39191 12.4589 9.59459H7.53185C7.51126 9.79914 7.50061 10.0068 7.50061 10.2163H12.4945C12.4945 10.4363 12.4789 10.6402 12.4564 10.8379H7.53185C7.5531 11.0486 7.58439 11.2556 7.62564 11.4596H12.3452C12.2964 11.6609 12.2402 11.8636 12.1696 12.0737H7.78499C7.8512 12.2863 7.93185 12.4926 8.01996 12.6941H11.9009C11.7934 12.9203 11.6715 13.1012 11.5372 13.3131H8.33688C8.46315 13.5307 8.6025 13.7383 8.75369 13.9372L11.056 13.9714C10.8597 14.2057 10.6079 14.3469 10.3785 14.552C10.391 14.5619 10.0116 14.5508 9.26483 14.539C10.401 15.7052 11.9889 16.4324 13.7506 16.4324C17.2022 16.4324 20 13.6494 20 10.2163C20 6.78309 17.2028 4 13.7507 4Z" fill="#FDBF5E"/>
</svg>
