<svg width="20" height="21" viewBox="0 0 20 21" fill="none" xmlns="http://www.w3.org/2000/svg">
<path d="M5.2064 13.8344C6.01181 13.8344 6.66474 14.4873 6.66474 15.2928V17.3743C6.66474 18.1798 6.01181 18.8327 5.2064 18.8327H3.12484C2.31942 18.8327 1.6665 18.1798 1.6665 17.3743V15.2928C1.6665 14.4873 2.31942 13.8344 3.12484 13.8344H5.2064ZM5.2064 15.0844H3.12484C3.00978 15.0844 2.9165 15.1778 2.9165 15.2928V17.3743C2.9165 17.4894 3.00978 17.5827 3.12484 17.5827H5.2064C5.32146 17.5827 5.41474 17.4894 5.41474 17.3743V15.2928C5.41474 15.1778 5.32146 15.0844 5.2064 15.0844ZM8.12325 15.4993H17.7106C18.0558 15.4993 18.3356 15.7792 18.3356 16.1243C18.3356 16.4408 18.1004 16.7023 17.7954 16.7437L17.7106 16.7493H8.12325C7.77807 16.7493 7.49825 16.4695 7.49825 16.1243C7.49825 15.8079 7.73338 15.5464 8.03844 15.505L8.12325 15.4993ZM5.2064 8.00023C6.01181 8.00023 6.66474 8.65315 6.66474 9.4586V11.5401C6.66474 12.3455 6.01181 12.9984 5.2064 12.9984H3.12484C2.31942 12.9984 1.6665 12.3455 1.6665 11.5401V9.4586C1.6665 8.65315 2.31942 8.00023 3.12484 8.00023H5.2064ZM5.2064 9.25027H3.12484C3.00978 9.25027 2.9165 9.34352 2.9165 9.4586V11.5401C2.9165 11.6552 3.00978 11.7484 3.12484 11.7484H5.2064C5.32146 11.7484 5.41474 11.6552 5.41474 11.5401V9.4586C5.41474 9.34352 5.32146 9.25027 5.2064 9.25027ZM8.12325 9.66602H17.7106C18.0558 9.66602 18.3356 9.94585 18.3356 10.291C18.3356 10.6074 18.1004 10.8689 17.7954 10.9103L17.7106 10.916H8.12325C7.77807 10.916 7.49825 10.6362 7.49825 10.291C7.49825 9.9746 7.73338 9.7131 8.03844 9.67168L8.12325 9.66602ZM5.2064 2.16602C6.01181 2.16602 6.66474 2.81893 6.66474 3.62435V5.70592C6.66474 6.51132 6.01181 7.16425 5.2064 7.16425H3.12484C2.31942 7.16425 1.6665 6.51132 1.6665 5.70592V3.62435C1.6665 2.81893 2.31942 2.16602 3.12484 2.16602H5.2064ZM5.2064 3.41602H3.12484C3.00978 3.41602 2.9165 3.50929 2.9165 3.62435V5.70592C2.9165 5.82097 3.00978 5.91425 3.12484 5.91425H5.2064C5.32146 5.91425 5.41474 5.82097 5.41474 5.70592V3.62435C5.41474 3.50929 5.32146 3.41602 5.2064 3.41602ZM8.12325 3.83268H17.7106C18.0558 3.83268 18.3356 4.11251 18.3356 4.45768C18.3356 4.7741 18.1004 5.03559 17.7954 5.07697L17.7106 5.08268H8.12325C7.77807 5.08268 7.49825 4.80286 7.49825 4.45768C7.49825 4.14127 7.73338 3.87977 8.03844 3.83839L8.12325 3.83268Z" fill="white"/>
</svg>
