<svg width="24" height="24" viewBox="0 0 24 24" fill="none" xmlns="http://www.w3.org/2000/svg">
<path d="M12.0122 2.25C12.7462 2.25846 13.4773 2.34326 14.1937 2.50304C14.5065 2.57279 14.7404 2.83351 14.7759 3.15196L14.9461 4.67881C15.0231 5.37986 15.615 5.91084 16.3207 5.91158C16.5103 5.91188 16.698 5.87238 16.8732 5.79483L18.2739 5.17956C18.5652 5.05159 18.9055 5.12136 19.123 5.35362C20.1352 6.43464 20.889 7.73115 21.3277 9.14558C21.4223 9.45058 21.3135 9.78203 21.0564 9.9715L19.8149 10.8866C19.4608 11.1468 19.2516 11.56 19.2516 11.9995C19.2516 12.4389 19.4608 12.8521 19.8157 13.1129L21.0583 14.0283C21.3154 14.2177 21.4244 14.5492 21.3297 14.8543C20.8912 16.2685 20.1378 17.5649 19.1262 18.6461C18.9089 18.8783 18.5688 18.9483 18.2775 18.8206L16.8712 18.2045C16.4689 18.0284 16.0068 18.0542 15.6266 18.274C15.2464 18.4937 14.9933 18.8812 14.945 19.3177L14.7759 20.8444C14.7411 21.1592 14.5122 21.4182 14.2041 21.4915C12.7556 21.8361 11.2465 21.8361 9.79804 21.4915C9.48991 21.4182 9.26105 21.1592 9.22619 20.8444L9.05736 19.32C9.00778 18.8843 8.75435 18.498 8.37443 18.279C7.99451 18.06 7.53321 18.0343 7.1322 18.2094L5.72558 18.8256C5.43422 18.9533 5.09404 18.8833 4.87679 18.6509C3.86463 17.5685 3.1112 16.2705 2.6732 14.8548C2.57887 14.5499 2.68787 14.2186 2.94485 14.0293L4.18818 13.1133C4.54232 12.8531 4.75148 12.4399 4.75148 12.0005C4.75148 11.561 4.54232 11.1478 4.18772 10.8873L2.94517 9.97285C2.6878 9.78345 2.5787 9.45178 2.67337 9.14658C3.11212 7.73215 3.86595 6.43564 4.87813 5.35462C5.0956 5.12236 5.43594 5.05259 5.72725 5.18056L7.12762 5.79572C7.53057 5.97256 7.9938 5.94585 8.37577 5.72269C8.75609 5.50209 9.00929 5.11422 9.05817 4.67764L9.22825 3.15196C9.26377 2.83335 9.49787 2.57254 9.81081 2.50294C10.5281 2.34342 11.26 2.25865 12.0122 2.25ZM11.9997 8.99995C10.3429 8.99995 8.9997 10.3431 8.9997 12C8.9997 13.6568 10.3429 15 11.9997 15C13.6566 15 14.9997 13.6568 14.9997 12C14.9997 10.3431 13.6566 8.99995 11.9997 8.99995Z" fill="#D0D0D0"/>
</svg>
