<svg width="20" height="21" viewBox="0 0 20 21" fill="none" xmlns="http://www.w3.org/2000/svg">
<path d="M13.8902 3H3.5415L3.41313 3.00432C2.43747 3.0703 1.6665 3.88262 1.6665 4.875V13.6269L1.67083 13.7552C1.7368 14.7309 2.54912 15.5019 3.5415 15.5019L7.08234 15.5017V17.5833L5.62484 17.5837L5.54003 17.5894C5.23496 17.6307 4.99984 17.8923 4.99984 18.2087C4.99984 18.5539 5.27966 18.8337 5.62484 18.8337H14.3748L14.4597 18.828C14.7647 18.7866 14.9998 18.5251 14.9998 18.2087C14.9998 17.8635 14.72 17.5837 14.3748 17.5837L12.9157 17.5833V15.5017L16.4572 15.5019L16.5856 15.4976C17.5613 15.4316 18.3322 14.6192 18.3322 13.6269V8.41708H17.0822V13.6269L17.0765 13.7117C17.0351 14.0167 16.7736 14.2519 16.4572 14.2519H3.5415L3.4567 14.2462C3.15163 14.2048 2.9165 13.9433 2.9165 13.6269V4.875L2.92221 4.79019C2.9636 4.48513 3.22509 4.25 3.5415 4.25H13.7497V3.62541C13.7497 3.40158 13.8001 3.18953 13.8902 3ZM8.3315 15.5017H11.6648L11.6657 17.5837H8.33234L8.3315 15.5017ZM14.583 3.625C14.583 3.27983 14.8628 3 15.208 3H18.5412C18.8863 3 19.1662 3.27983 19.1662 3.625V6.95833C19.1662 7.30351 18.8863 7.58333 18.5412 7.58333H15.208C14.8628 7.58333 14.583 7.30351 14.583 6.95833V6.33333H14.3138C14.1216 6.33333 13.951 6.45629 13.8903 6.63859L13.1287 8.92333C12.8978 9.61608 12.2494 10.0833 11.5193 10.0833H10.833V11.5417C10.833 11.8868 10.5532 12.1667 10.208 12.1667H6.87484C6.52966 12.1667 6.24984 11.8868 6.24984 11.5417V8.20833C6.24984 7.86316 6.52966 7.58333 6.87484 7.58333H10.208C10.5532 7.58333 10.833 7.86316 10.833 8.20833V8.83333H11.5193C11.7114 8.83333 11.882 8.71037 11.9428 8.52807L12.7043 6.2433C12.9353 5.55058 13.5836 5.08333 14.3138 5.08333H14.583V3.625ZM15.833 5.72327V6.33333H17.9162V4.25H15.833V5.6934C15.8331 5.69837 15.8332 5.70334 15.8332 5.70833C15.8332 5.71332 15.8331 5.7183 15.833 5.72327ZM7.49984 8.83333V10.9167H9.583V8.83333H7.49984Z" fill="#E0E0E0"/>
</svg>
