<svg width="24" height="25" viewBox="0 0 24 25" fill="none" xmlns="http://www.w3.org/2000/svg">
<path d="M6.78033 3.21967C7.07322 3.51256 7.07322 3.98744 6.78033 4.28033L4.56066 6.5H13.25C17.5302 6.5 21 9.96979 21 14.25C21 18.5302 17.5302 22 13.25 22C8.96979 22 5.5 18.5302 5.5 14.25C5.5 13.8358 5.83579 13.5 6.25 13.5C6.66421 13.5 7 13.8358 7 14.25C7 17.7018 9.79822 20.5 13.25 20.5C16.7018 20.5 19.5 17.7018 19.5 14.25C19.5 10.7982 16.7018 8 13.25 8H4.56066L6.78033 10.2197C7.07322 10.5126 7.07322 10.9874 6.78033 11.2803C6.48744 11.5732 6.01256 11.5732 5.71967 11.2803L2.21967 7.78033C1.92678 7.48744 1.92678 7.01256 2.21967 6.71967L5.71967 3.21967C6.01256 2.92678 6.48744 2.92678 6.78033 3.21967Z" fill="#83888D"/>
</svg>
