<svg width="24" height="24" viewBox="0 0 24 24" fill="none" xmlns="http://www.w3.org/2000/svg">
<path d="M11.2468 2.43047C16.5324 2.01448 21.1545 5.96207 21.5704 11.2477C21.9864 16.5333 18.0388 21.1553 12.7533 21.5712C7.46763 21.9873 2.84559 18.0396 2.4296 12.7541C2.40283 12.4139 2.39531 12.0484 2.40614 11.6871C2.42103 11.1903 2.83586 10.7996 3.3327 10.8145C3.82953 10.8294 4.22022 11.2442 4.20533 11.741C4.19639 12.0394 4.20258 12.34 4.22406 12.6129C4.56204 16.9074 8.31745 20.1148 12.612 19.7769C16.9066 19.4388 20.1139 15.6834 19.776 11.3889C19.438 7.09435 15.6826 3.88693 11.388 4.22491C9.3045 4.38889 7.42116 5.36547 6.09321 6.90653L5.84897 7.20399L8.70353 7.20503L8.82565 7.21325C9.26493 7.27284 9.60353 7.64939 9.60353 8.10503C9.60353 8.56066 9.26493 8.93722 8.82565 8.99681L8.70353 9.00503H3.9036L3.78147 8.99681C3.38211 8.94263 3.06599 8.62651 3.01182 8.22715L3.0036 8.10503V3.30503L3.01182 3.18291C3.06599 2.78355 3.38211 2.46742 3.78147 2.41325L3.9036 2.40503L4.02572 2.41325C4.42508 2.46742 4.74121 2.78355 4.79538 3.18291L4.8036 3.30503L4.80216 5.64833C6.43164 3.80045 8.72124 2.62923 11.2468 2.43047ZM11.7 7.20503L11.8221 7.21325C12.2215 7.26742 12.5376 7.58355 12.5917 7.98291L12.6 8.10503V11.9997L14.7 12.0009L14.8222 12.0091C15.2614 12.0687 15.6 12.4452 15.6 12.9009C15.6 13.3565 15.2614 13.7331 14.8222 13.7927L14.7 13.8009H11.7L11.5779 13.7927C11.1785 13.7385 10.8624 13.4224 10.8082 13.023L10.8 12.9009V8.10503L10.8082 7.98291C10.8624 7.58355 11.1785 7.26742 11.5779 7.21325L11.7 7.20503Z" fill="white"/>
</svg>
