<svg width="16" height="16" viewBox="0 0 16 16" fill="none" xmlns="http://www.w3.org/2000/svg">
<path d="M11.9563 2.00343L11.8333 2H4.16667L4.04372 2.00343C2.9043 2.06717 2 3.01131 2 4.16667V11.8333L2.00343 11.9563C2.06717 13.0957 3.01131 14 4.16667 14H8.01493C7.75647 13.5963 7.56313 13.1469 7.44967 12.6667H4.16667L4.08146 12.6623C3.66125 12.6197 3.33333 12.2648 3.33333 11.8333L3.33413 5.33333H12.6667L12.6669 7.44927C13.1474 7.56273 13.5969 7.7562 14.0008 8.0148V4.16667L13.9974 4.04372C13.9359 2.945 13.0558 2.06489 11.9563 2.00343ZM7.3288 6.76547C7.29567 6.52143 7.08647 6.33333 6.83333 6.33333H4.5L4.43215 6.3379C4.1881 6.37101 4 6.5802 4 6.83333V11.5L4.00457 11.5679C4.03767 11.8119 4.24687 12 4.5 12H6.83333L6.9012 11.9955C7.1452 11.9623 7.33333 11.7531 7.33333 11.5V6.83333L7.3288 6.76547ZM5 7.33333H6.33333V11H5V7.33333ZM12 6.83333C12 6.55719 11.7761 6.33333 11.5 6.33333H8.50293L8.43507 6.3379C8.19107 6.37101 8.00293 6.5802 8.00293 6.83333C8.00293 7.10947 8.2268 7.33333 8.50293 7.33333H11.5L11.5679 7.3288C11.8119 7.29567 12 7.08647 12 6.83333ZM9.51913 9.31693C9.729 10.0437 9.29273 10.7994 8.55833 10.9811L8.16887 11.0774C8.13893 11.2692 8.1234 11.466 8.1234 11.6665C8.1234 11.8763 8.1404 12.082 8.17313 12.2821L8.53273 12.3688C9.2744 12.5474 9.71533 13.3107 9.4994 14.0424L9.3752 14.4633C9.66793 14.7203 10.0016 14.9291 10.3646 15.0777L10.6935 14.7318C11.2192 14.179 12.1007 14.1791 12.6262 14.7321L12.9587 15.082C13.3211 14.9351 13.6544 14.7283 13.9472 14.4734L13.8152 14.0161C13.6054 13.2893 14.0416 12.5337 14.776 12.352L15.1651 12.2557C15.1951 12.0639 15.2107 11.8671 15.2107 11.6665C15.2107 11.4567 15.1936 11.251 15.1609 11.0508L14.8016 10.9643C14.0599 10.7857 13.6191 10.0223 13.8349 9.2906L13.9591 8.87007C13.6663 8.61287 13.3327 8.40407 12.9696 8.25553L12.6409 8.6012C12.1151 9.15407 11.2337 9.15393 10.7081 8.60087L10.3756 8.251C10.0132 8.3978 9.67993 8.60453 9.38707 8.85947L9.51913 9.31693ZM11.667 12.6665C11.1333 12.6665 10.7006 12.2188 10.7006 11.6665C10.7006 11.1143 11.1333 10.6665 11.667 10.6665C12.2008 10.6665 12.6335 11.1143 12.6335 11.6665C12.6335 12.2188 12.2008 12.6665 11.667 12.6665Z" fill="#D0D0D0"/>
</svg>
