<svg width="16" height="16" viewBox="0 0 16 16" fill="none" xmlns="http://www.w3.org/2000/svg">
<path d="M7.99951 5.50059C6.61881 5.50059 5.49951 6.61989 5.49951 8.00059C5.49951 9.38129 6.61881 10.5006 7.99951 10.5006C9.38021 10.5006 10.4995 9.38129 10.4995 8.00059C10.4995 6.61989 9.38021 5.50059 7.99951 5.50059ZM6.49951 8.00059C6.49951 7.17214 7.17106 6.50059 7.99951 6.50059C8.82796 6.50059 9.49951 7.17214 9.49951 8.00059C9.49951 8.82904 8.82796 9.50059 7.99951 9.50059C7.17106 9.50059 6.49951 8.82904 6.49951 8.00059ZM6.41966 14.8146C6.93721 14.9382 7.46751 15.0007 7.99966 15.0006C8.53116 14.9998 9.06076 14.9368 9.57766 14.8131C9.72606 14.778 9.86001 14.6978 9.96106 14.5836C10.0621 14.4694 10.1254 14.3267 10.1422 14.1751L10.2596 13.1101C10.2764 12.9346 10.3557 12.771 10.483 12.649C10.6102 12.527 10.7771 12.4548 10.9531 12.4456C11.0697 12.4407 11.1859 12.4626 11.2927 12.5096L12.2701 12.9381C12.3635 12.9791 12.4644 13.0003 12.5664 13.0003C12.6684 13.0003 12.7693 12.9791 12.8626 12.9381C12.9547 12.898 13.0375 12.8393 13.1057 12.7656C13.8279 11.9874 14.367 11.0575 14.6836 10.0441C14.729 9.89749 14.7276 9.74044 14.6796 9.59469C14.6317 9.44894 14.5396 9.32169 14.4162 9.23059L13.5517 8.59309C13.4093 8.48949 13.3085 8.33859 13.2674 8.16744C13.2263 7.99629 13.2474 7.81604 13.3272 7.65909C13.3806 7.55449 13.458 7.46404 13.5532 7.39509L14.4132 6.75959C14.5374 6.66879 14.6301 6.54134 14.6782 6.39519C14.7264 6.24904 14.7276 6.09144 14.6816 5.94459C14.3656 4.93097 13.8262 4.00115 13.1032 3.22358C12.9986 3.1118 12.862 3.03519 12.7121 3.0043C12.5622 2.97341 12.4064 2.98975 12.2661 3.05108L11.2932 3.47909C11.1865 3.52558 11.0704 3.54632 10.9543 3.53964C10.8381 3.53296 10.7252 3.49904 10.6246 3.44063C10.5239 3.38221 10.4385 3.30095 10.3751 3.2034C10.3117 3.10585 10.2722 2.99475 10.2596 2.87909L10.1417 1.81909C10.1252 1.66562 10.0609 1.52118 9.95806 1.40611C9.85516 1.29104 9.71881 1.21112 9.56811 1.17759C9.05471 1.06288 8.53071 1.00204 8.00461 0.996094C7.47546 1.00235 6.94831 1.06318 6.43161 1.17759C6.28066 1.21077 6.14401 1.29074 6.04116 1.40609C5.93806 1.52038 5.87391 1.66449 5.85811 1.81759L5.73961 2.87858C5.72666 2.99442 5.68681 3.10562 5.62316 3.20327C5.55951 3.30093 5.47391 3.38232 5.37316 3.44093C5.27241 3.49954 5.15931 3.53376 5.04296 3.54081C4.92662 3.54787 4.81024 3.5276 4.70314 3.4816L3.73014 3.05308C3.63758 3.01362 3.538 2.9933 3.43738 2.9933C3.33677 2.9933 3.23719 3.01362 3.14464 3.05308C3.04976 3.0929 2.96452 3.15257 2.89464 3.22809C2.17164 4.00659 1.63196 4.93698 1.31514 5.95109C1.27003 6.09759 1.27159 6.25449 1.3196 6.40009C1.36762 6.54564 1.45972 6.67269 1.58314 6.76359L2.44564 7.39959C2.58739 7.50389 2.68757 7.65504 2.7284 7.82624C2.76923 7.99744 2.74806 8.17754 2.66864 8.33459C2.61621 8.43884 2.53978 8.52914 2.44564 8.59809L1.58314 9.23559C1.45935 9.32664 1.36705 9.45404 1.3191 9.60004C1.27115 9.74604 1.26994 9.90339 1.31563 10.0501C1.63231 11.0648 2.17199 11.9959 2.89514 12.7751C2.96349 12.8483 3.04621 12.9067 3.13814 12.9466C3.23152 12.9869 3.33217 13.0077 3.43389 13.0077C3.53561 13.0077 3.63625 12.9869 3.72964 12.9466L4.70714 12.5171C4.81375 12.471 4.92969 12.4506 5.04561 12.4575C5.16156 12.4644 5.27426 12.4983 5.37471 12.5567C5.47511 12.6151 5.56046 12.6961 5.62381 12.7935C5.68721 12.8908 5.72686 13.0016 5.73961 13.1171L5.85716 14.1801C5.87431 14.3308 5.93751 14.4726 6.03816 14.5862C6.13881 14.6997 6.27201 14.7795 6.41966 14.8146ZM9.17016 13.8816C8.39866 14.0398 7.60311 14.0398 6.83166 13.8816L6.73416 13.0116C6.68651 12.586 6.48356 12.1929 6.16411 11.9076C5.91406 11.6874 5.60686 11.5424 5.27791 11.4893C4.949 11.4362 4.61177 11.4772 4.30514 11.6076L3.50214 11.9576C2.98413 11.3644 2.58551 10.6768 2.32814 9.93259L3.04014 9.40659C3.26011 9.24449 3.43891 9.03299 3.56214 8.78914C3.68537 8.54524 3.74957 8.27584 3.74957 8.00259C3.74957 7.72934 3.68537 7.45994 3.56214 7.21604C3.43891 6.97219 3.26011 6.76069 3.04014 6.59859L2.32914 6.07409C2.58681 5.33059 2.98541 4.64369 3.50314 4.05108L4.30314 4.40109C4.52364 4.49846 4.76209 4.54854 5.00311 4.54809C5.43236 4.54675 5.84616 4.38769 6.16576 4.10116C6.48541 3.81464 6.68856 3.42064 6.73666 2.99409L6.83366 2.12059C7.22046 2.04581 7.61316 2.00566 8.00711 2.00059C8.39811 2.00555 8.78781 2.04554 9.17166 2.12008L9.26516 2.99009C9.31136 3.41709 9.51381 3.81191 9.83366 4.09858C10.0839 4.32006 10.3919 4.46586 10.7219 4.51898C11.0518 4.57209 11.39 4.53034 11.6971 4.39859L12.4972 4.0486C13.0154 4.64109 13.4142 5.32819 13.6716 6.07209L12.9607 6.59509C12.7396 6.75659 12.5597 6.96804 12.4357 7.21219C12.3117 7.45634 12.2471 7.72629 12.2471 8.00009C12.2471 8.27389 12.3117 8.54384 12.4357 8.78799C12.5597 9.03214 12.7396 9.24354 12.9607 9.40509L13.6716 9.92959C13.4141 10.6724 13.0162 11.3589 12.4997 11.9516L11.6996 11.6016C11.4493 11.4902 11.1762 11.4396 10.9026 11.4539C10.629 11.4683 10.3627 11.5472 10.1254 11.6841C9.88816 11.8211 9.68661 12.0123 9.53736 12.242C9.38811 12.4718 9.29536 12.7336 9.26666 13.0061L9.17016 13.8816Z" fill="#D0D0D0"/>
</svg>
