<svg width="49" height="48" viewBox="0 0 49 48" fill="none" xmlns="http://www.w3.org/2000/svg">
<rect x="0.666504" width="48" height="48" rx="24" fill="url(#paint0_linear_9544_1671)"/>
<path d="M31.3736 20.7071C31.7641 20.3166 31.7641 19.6834 31.3736 19.2929C30.9831 18.9024 30.3499 18.9024 29.9594 19.2929L23.1665 26.0858L19.8736 22.7929C19.4831 22.4024 18.8499 22.4024 18.4594 22.7929C18.0689 23.1834 18.0689 23.8166 18.4594 24.2071L22.4594 28.2071C22.8499 28.5976 23.4831 28.5976 23.8736 28.2071L31.3736 20.7071ZM24.6665 10C16.9345 10 10.6665 16.268 10.6665 24C10.6665 31.732 16.9345 38 24.6665 38C32.3985 38 38.6665 31.732 38.6665 24C38.6665 16.268 32.3985 10 24.6665 10ZM12.6665 24C12.6665 17.3726 18.0391 12 24.6665 12C31.2939 12 36.6665 17.3726 36.6665 24C36.6665 30.6274 31.2939 36 24.6665 36C18.0391 36 12.6665 30.6274 12.6665 24Z" fill="white"/>
<defs>
<linearGradient id="paint0_linear_9544_1671" x1="0.666503" y1="24.0117" x2="48.6665" y2="24.0117" gradientUnits="userSpaceOnUse">
<stop stop-color="#71C9EC"/>
<stop offset="1" stop-color="#833FB4"/>
</linearGradient>
</defs>
</svg>
