<svg width="20" height="21" viewBox="0 0 20 21" fill="none" xmlns="http://www.w3.org/2000/svg">
<path d="M6.78654 5.75542C7.14824 5.56218 7.53747 5.50003 7.91642 5.5C8.35512 5.49998 8.86462 5.64408 9.27612 5.9813C9.70696 6.33432 9.99979 6.87594 9.99979 7.58272C9.99979 8.39488 9.42587 8.83581 9.10229 9.08439C9.07712 9.10372 9.05354 9.12189 9.03179 9.13898C8.67796 9.41706 8.54146 9.56564 8.54146 9.87439C8.54146 10.2196 8.26163 10.4994 7.91646 10.4994C7.57128 10.4994 7.29146 10.2196 7.29146 9.87439C7.29146 8.92939 7.88417 8.45102 8.25946 8.15611C8.68721 7.81997 8.74979 7.74509 8.74979 7.58272C8.74979 7.25186 8.62596 7.0646 8.48387 6.94817C8.32249 6.81593 8.10281 6.74999 7.91649 6.75C7.67045 6.75002 7.50134 6.79074 7.37554 6.85795C7.256 6.92181 7.12952 7.03394 7.00757 7.25887C6.84305 7.56232 6.46368 7.67494 6.16024 7.51043C5.85679 7.34591 5.74417 6.96654 5.90868 6.66309C6.1284 6.25782 6.41858 5.95198 6.78654 5.75542Z" fill="white"/>
<path d="M7.91689 13.0007C8.37716 13.0007 8.75025 12.6277 8.75025 12.1674C8.75025 11.7071 8.37716 11.334 7.91689 11.334C7.45662 11.334 7.0835 11.7071 7.0835 12.1674C7.0835 12.6277 7.45662 13.0007 7.91689 13.0007Z" fill="white"/>
<path d="M7.91654 3C4.46477 3 1.66655 5.79822 1.66655 9.25C1.66655 10.1941 1.87627 11.0907 2.25209 11.8945C2.04039 12.7262 1.80389 13.6535 1.64856 14.2623C1.45437 15.0233 2.13973 15.7157 2.90168 15.5325C3.52687 15.3823 4.48772 15.1516 5.34395 14.9475C6.12921 15.3026 7.00058 15.5 7.91654 15.5C11.3683 15.5 14.1666 12.7018 14.1666 9.25C14.1666 5.79822 11.3683 3 7.91654 3ZM2.91655 9.25C2.91655 6.48858 5.15512 4.25 7.91654 4.25C10.678 4.25 12.9166 6.48858 12.9166 9.25C12.9166 12.0114 10.678 14.25 7.91654 14.25C7.11594 14.25 6.36096 14.0623 5.69158 13.7291L5.48873 13.6281L5.2683 13.6806C4.49936 13.8636 3.61097 14.0766 2.94517 14.2365C3.1108 13.5873 3.3301 12.727 3.52024 11.9798L3.57873 11.7498L3.46996 11.539C3.11645 10.8538 2.91655 10.0762 2.91655 9.25Z" fill="white"/>
<path d="M12.0833 17.9998C10.4421 17.9998 8.94867 17.3672 7.8335 16.3326C7.86116 16.3329 7.88886 16.3331 7.9166 16.3331C8.51492 16.3331 9.09584 16.2589 9.65084 16.1192C10.3708 16.5209 11.2003 16.7498 12.0833 16.7498C12.8838 16.7498 13.6388 16.562 14.3082 16.2288L14.5111 16.1278L14.7315 16.1803C15.4994 16.3631 16.3691 16.5518 17.0141 16.6882C16.8683 16.0628 16.6694 15.2256 16.4795 14.4794L16.4211 14.2496L16.5298 14.0388C16.8833 13.3536 17.0833 12.5759 17.0833 11.7498C17.0833 9.98745 16.1716 8.43817 14.7941 7.54771C14.6454 6.94499 14.4197 6.37266 14.1278 5.8418C16.5755 6.68873 18.3333 9.01395 18.3333 11.7498C18.3333 12.694 18.1234 13.5909 17.7474 14.3948C17.9583 15.2348 18.1718 16.1447 18.3073 16.7308C18.4776 17.4683 17.8281 18.1358 17.0843 17.9804C16.4784 17.8537 15.5263 17.6505 14.6565 17.4469C13.8711 17.8022 12.9995 17.9998 12.0833 17.9998Z" fill="white"/>
</svg>
