<svg width="48" height="48" viewBox="0 0 48 48" fill="none" xmlns="http://www.w3.org/2000/svg">
<rect width="48" height="48" rx="24" fill="url(#paint0_linear_9544_1689)"/>
<path d="M38 19C38 21.7614 35.7614 24 33 24C30.581 24 28.5632 22.2822 28.1 20H27.4594C26.5061 20 25.6852 20.6729 25.4983 21.6078L24.4629 26.7845C24.089 28.6542 22.4473 30 20.5406 30H19.9C19.4367 32.2822 17.419 34 15 34C12.2386 34 10 31.7614 10 29C10 26.2386 12.2386 24 15 24C17.419 24 19.4367 25.7178 19.9 28H20.5406C21.4939 28 22.3148 27.3271 22.5017 26.3922L23.5371 21.2155C23.911 19.3458 25.5527 18 27.4594 18H28.1C28.5632 15.7178 30.581 14 33 14C35.7614 14 38 16.2386 38 19ZM36 19C36 17.3431 34.6568 16 33 16C31.3432 16 30 17.3431 30 19C30 20.6569 31.3432 22 33 22C34.6568 22 36 20.6569 36 19ZM15 32C16.6569 32 18 30.6568 18 29C18 27.3431 16.6569 26 15 26C13.3431 26 12 27.3431 12 29C12 30.6568 13.3431 32 15 32Z" fill="white"/>
<defs>
<linearGradient id="paint0_linear_9544_1689" x1="-4.75929e-07" y1="24.0117" x2="48" y2="24.0117" gradientUnits="userSpaceOnUse">
<stop stop-color="#71C9EC"/>
<stop offset="1" stop-color="#833FB4"/>
</linearGradient>
</defs>
</svg>
