<svg width="60" height="80" viewBox="0 0 60 80" fill="none" xmlns="http://www.w3.org/2000/svg">
<g clip-path="url(#clip0_9338_15555)">
<path d="M0 16C0 10.3995 0 7.59921 1.08993 5.46009C2.04867 3.57847 3.57847 2.04867 5.46009 1.08993C7.59921 0 10.3995 0 16 0H40.0235C41.4911 0 42.2249 0 42.9154 0.16578C43.5276 0.312761 44.1129 0.555187 44.6497 0.884159C45.2552 1.25521 45.7741 1.77406 46.8118 2.81178L57.1882 13.1882C58.2259 14.2259 58.7448 14.7448 59.1158 15.3503C59.4448 15.8871 59.6872 16.4724 59.8342 17.0846C60 17.7751 60 18.5089 60 19.9764V64C60 69.6005 60 72.4008 58.9101 74.5399C57.9513 76.4215 56.4215 77.9513 54.5399 78.9101C52.4008 80 49.6005 80 44 80H16C10.3995 80 7.59921 80 5.46009 78.9101C3.57847 77.9513 2.04867 76.4215 1.08993 74.5399C0 72.4008 0 69.6005 0 64V16Z" fill="url(#paint0_linear_9338_15555)"/>
<path d="M41 17.0043V5.90162C41 4.83254 42.2926 4.29714 43.0485 5.05309L54.9514 16.9558C55.7074 17.7117 55.172 19.0043 54.1029 19.0043H43C41.8954 19.0043 41 18.1089 41 17.0043Z" fill="white"/>
<path fill-rule="evenodd" clip-rule="evenodd" d="M12 33.5C12 32.6716 12.6716 32 13.5 32H22.5C23.3284 32 24 32.6716 24 33.5C24 34.3284 23.3284 35 22.5 35H13.5C12.6716 35 12 34.3284 12 33.5ZM12 41.5C12 40.6716 12.6716 40 13.5 40H34.5C35.3284 40 36 40.6716 36 41.5C36 42.3284 35.3284 43 34.5 43H13.5C12.6716 43 12 42.3284 12 41.5ZM13.5 48C12.6716 48 12 48.6716 12 49.5C12 50.3284 12.6716 51 13.5 51H16.5C17.3284 51 18 50.3284 18 49.5C18 48.6716 17.3284 48 16.5 48H13.5ZM12 57.5C12 56.6716 12.6716 56 13.5 56H14.5C15.3284 56 16 56.6716 16 57.5C16 58.3284 15.3284 59 14.5 59H13.5C12.6716 59 12 58.3284 12 57.5ZM19.5 56C18.6716 56 18 56.6716 18 57.5C18 58.3284 18.6716 59 19.5 59H26.5C27.3284 59 28 58.3284 28 57.5C28 56.6716 27.3284 56 26.5 56H19.5ZM20 49.5C20 48.6716 20.6716 48 21.5 48H32.5C33.3284 48 34 48.6716 34 49.5C34 50.3284 33.3284 51 32.5 51H21.5C20.6716 51 20 50.3284 20 49.5ZM37.5 48C36.6716 48 36 48.6716 36 49.5C36 50.3284 36.6716 51 37.5 51H46.5C47.3284 51 48 50.3284 48 49.5C48 48.6716 47.3284 48 46.5 48H37.5ZM38 41.5C38 40.6716 38.6716 40 39.5 40H46.5C47.3284 40 48 40.6716 48 41.5C48 42.3284 47.3284 43 46.5 43H39.5C38.6716 43 38 42.3284 38 41.5ZM27.5 32C26.6716 32 26 32.6716 26 33.5C26 34.3284 26.6716 35 27.5 35H28.5C29.3284 35 30 34.3284 30 33.5C30 32.6716 29.3284 32 28.5 32H27.5ZM32 33.5C32 32.6716 32.6716 32 33.5 32H38.5C39.3284 32 40 32.6716 40 33.5C40 34.3284 39.3284 35 38.5 35H33.5C32.6716 35 32 34.3284 32 33.5ZM43.5 32C42.6716 32 42 32.6716 42 33.5C42 34.3284 42.6716 35 43.5 35H46.5C47.3284 35 48 34.3284 48 33.5C48 32.6716 47.3284 32 46.5 32H43.5Z" fill="white"/>
</g>
<defs>
<linearGradient id="paint0_linear_9338_15555" x1="-5.94911e-07" y1="40.0195" x2="60" y2="40.0195" gradientUnits="userSpaceOnUse">
<stop stop-color="#71C9EC"/>
<stop offset="1" stop-color="#833FB4"/>
</linearGradient>
<clipPath id="clip0_9338_15555">
<rect width="60" height="80" fill="white"/>
</clipPath>
</defs>
</svg>
