<svg width="24" height="24" viewBox="0 0 24 24" fill="none" xmlns="http://www.w3.org/2000/svg">
<path d="M15.0648 1.94559C15.2331 1.56707 15.6764 1.3966 16.0548 1.56483C16.2282 1.6419 19.0208 2.9724 20.8943 6.11078C21.842 7.69844 22.2404 9.32715 22.4042 10.5693C22.4862 11.1923 22.5102 11.7237 22.5134 12.1122C22.515 12.3066 22.5116 12.4652 22.5075 12.5811C22.5056 12.6389 22.5035 12.6858 22.502 12.7192L22.5002 12.7579V12.7516C22.4994 13.1652 22.1639 13.5002 21.7502 13.5002C21.336 13.5002 21.0002 13.1644 21.0002 12.7502C21.0002 12.7367 21.0012 12.7116 21.0027 12.6757C21.0239 12.1623 21.1361 9.44246 19.6062 6.8796C18.7857 5.50508 17.759 4.52294 16.9218 3.87828C16.5041 3.55659 16.1366 3.32128 15.8706 3.1653C15.6147 3.0151 15.4574 2.94105 15.4457 2.93555C15.0671 2.76732 14.8966 2.3241 15.0648 1.94559Z" fill="#F0F0F0"/>
<path d="M15.1422 5.56467C15.3847 5.22894 15.8536 5.15346 16.1893 5.39607C16.1844 5.39253 16.5427 5.61848 16.9704 6.01083C17.3997 6.40479 17.9301 6.99066 18.3529 7.77696C18.7731 8.55804 18.9742 9.30563 19.071 9.86814C19.1194 10.1502 19.1421 10.3882 19.1526 10.5642C19.1578 10.6523 19.1601 10.7249 19.161 10.7797C19.1617 10.8323 19.1613 10.874 19.1613 10.874C19.1613 11.2883 18.8254 11.624 18.4113 11.624C17.9971 11.624 17.6613 11.2883 17.6613 10.874V10.8692C17.6622 10.778 17.6724 9.6785 17.0319 8.48744C16.4241 7.35729 15.5235 6.75455 15.3393 6.63128C15.3258 6.62222 15.3162 6.61574 15.3108 6.61185C14.975 6.36923 14.8995 5.9004 15.1422 5.56467Z" fill="#F0F0F0"/>
<path d="M3.80478 16.0608C2.14806 13.1913 3.13124 9.52205 6.00077 7.86533C8.87028 6.20861 12.5395 7.19179 14.1962 10.0613L15.4274 12.1917L18.2852 14.2709C18.4905 14.4203 18.6063 14.6634 18.593 14.9169C18.5795 15.1704 18.4388 15.3999 18.219 15.527L14.4243 17.7177L14.4296 17.7213L10.3224 20.0925L10.3219 20.0862L6.52758 22.277C6.30771 22.4039 6.03855 22.4109 5.81231 22.2957C5.58606 22.1805 5.43345 21.9588 5.40675 21.7062L5.03502 18.1917L3.80478 16.0608Z" fill="#F0F0F0"/>
<path d="M15.375 18.9082L10.8779 21.5046C11.6713 22.5133 13.1058 22.8123 14.2496 22.1518C15.3934 21.4915 15.8518 20.0997 15.375 18.9082Z" fill="#F0F0F0"/>
</svg>
