<svg width="20" height="21" viewBox="0 0 20 21" fill="none" xmlns="http://www.w3.org/2000/svg">
<path d="M12.295 8.83398C13.1004 8.83398 13.7533 9.4869 13.7533 10.2923V13.0007H13.75V13.209C13.75 13.5542 13.4702 13.834 13.125 13.834C12.7798 13.834 12.5 13.5542 12.5 13.209V11.334H12.5033V10.2923C12.5033 10.1772 12.4101 10.084 12.295 10.084H7.70994C7.59488 10.084 7.50161 10.1772 7.50161 10.2923V13.0007H7.5V13.209C7.5 13.5542 7.22017 13.834 6.875 13.834C6.52983 13.834 6.25 13.5542 6.25 13.209V11.334H6.25161V10.2923C6.25161 9.4869 6.90453 8.83398 7.70994 8.83398H12.295Z" fill="white"/>
<path d="M17.0831 10.2911V13.2078C17.0831 13.553 17.3629 13.8328 17.7081 13.8328C18.0533 13.8328 18.3331 13.553 18.3331 13.2078V10.2911C18.3331 9.48573 17.6802 8.83281 16.8748 8.83281L14.062 8.83203C14.3481 9.17823 14.5345 9.6099 14.5771 10.083L16.8748 10.0828C16.9898 10.0828 17.0831 10.1761 17.0831 10.2911Z" fill="white"/>
<path d="M1.6665 13.2078C1.6665 13.553 1.94633 13.8328 2.2915 13.8328C2.63668 13.8328 2.9165 13.553 2.9165 13.2078V10.2911C2.9165 10.1761 3.00978 10.0828 3.12484 10.0828L5.42744 10.083C5.47004 9.6099 5.65643 9.17823 5.94257 8.83203L3.12484 8.83281C2.31942 8.83281 1.6665 9.48573 1.6665 10.2911V13.2078Z" fill="white"/>
<path d="M10 3C11.3807 3 12.5 4.11929 12.5 5.5C12.5 6.88071 11.3807 8 10 8C8.61925 8 7.5 6.88071 7.5 5.5C7.5 4.11929 8.61925 3 10 3ZM10 4.25C9.30967 4.25 8.75 4.80964 8.75 5.5C8.75 6.19036 9.30967 6.75 10 6.75C10.6903 6.75 11.25 6.19036 11.25 5.5C11.25 4.80964 10.6903 4.25 10 4.25Z" fill="white"/>
<path d="M15.4168 3.83398C16.5674 3.83398 17.5002 4.76673 17.5002 5.91732C17.5002 7.06791 16.5674 8.00065 15.4168 8.00065C14.2662 8.00065 13.3335 7.06791 13.3335 5.91732C13.3335 4.76673 14.2662 3.83398 15.4168 3.83398ZM15.4168 5.08398C14.9566 5.08398 14.5835 5.45708 14.5835 5.91732C14.5835 6.37755 14.9566 6.75065 15.4168 6.75065C15.8771 6.75065 16.2502 6.37755 16.2502 5.91732C16.2502 5.45708 15.8771 5.08398 15.4168 5.08398Z" fill="white"/>
<path d="M4.58333 3.83398C5.73392 3.83398 6.66667 4.76673 6.66667 5.91732C6.66667 7.06791 5.73392 8.00065 4.58333 8.00065C3.43274 8.00065 2.5 7.06791 2.5 5.91732C2.5 4.76673 3.43274 3.83398 4.58333 3.83398ZM4.58333 5.08398C4.1231 5.08398 3.75 5.45708 3.75 5.91732C3.75 6.37755 4.1231 6.75065 4.58333 6.75065C5.04357 6.75065 5.41667 6.37755 5.41667 5.91732C5.41667 5.45708 5.04357 5.08398 4.58333 5.08398Z" fill="white"/>
<path d="M2.2915 14.666C1.94633 14.666 1.6665 14.9458 1.6665 15.291V15.7077C1.6665 17.4336 3.06561 18.8327 4.7915 18.8327H15.2082C16.9341 18.8327 18.3332 17.4336 18.3332 15.7077V15.291C18.3332 14.9458 18.0533 14.666 17.7082 14.666H2.2915ZM4.7915 17.5827C3.82639 17.5827 3.03158 16.8535 2.92795 15.916H17.0718C16.9681 16.8535 16.1733 17.5827 15.2082 17.5827H4.7915Z" fill="white"/>
</svg>
